<svg width="765" height="453" viewBox="0 0 765 453" fill="none" xmlns="http://www.w3.org/2000/svg">
<path d="M359.52 144.79L388.24 4.39014L374 5.20014L345.27 145.61L359.52 144.79Z" fill="white"/>
<path d="M331.56 76.6498L327.87 12.3198L262.24 16.0898L269.62 144.75L335.24 140.98L331.56 76.6498Z" fill="white"/>
<path d="M515.48 66.1098C515.12 59.7498 513.84 53.6698 511.79 47.9598C510.77 45.1098 509.55 42.3598 508.15 39.7098C503.03 30.0198 495.53 21.8398 486.46 15.8898C485.84 15.4798 485.22 15.0898 484.58 14.6998C482.68 13.5498 480.72 12.4898 478.71 11.5298C476.02 10.2598 473.24 9.15979 470.37 8.25979C468.46 7.65979 466.51 7.14979 464.53 6.72979C462.55 6.30979 460.54 5.97979 458.5 5.74979C456.46 5.51979 454.39 5.37979 452.31 5.34979C451.51 5.33979 450.71 5.33979 449.9 5.34979C449.09 5.36979 448.28 5.39979 447.47 5.43979C444.14 5.62979 440.88 6.06979 437.71 6.73979C436.65 6.95979 435.61 7.20978 434.57 7.48978C432.5 8.03978 430.47 8.68979 428.5 9.42979C427.51 9.79979 426.53 10.1998 425.57 10.6098C423.64 11.4398 421.76 12.3698 419.94 13.3798C418.12 14.3898 416.35 15.4898 414.64 16.6598C413.79 17.2498 412.95 17.8598 412.13 18.4798C408.84 20.9898 405.8 23.7998 403.06 26.8798C401.69 28.4198 400.39 30.0198 399.17 31.6898C397.34 34.1898 395.69 36.8198 394.23 39.5598C393.26 41.3898 392.37 43.2698 391.57 45.1998C390.77 47.1298 390.07 49.0998 389.46 51.1098C388.55 54.1298 387.85 57.2298 387.39 60.4098C386.77 64.6498 386.57 69.0098 386.83 73.4498C387.13 78.7498 388.07 83.8598 389.56 88.7198C390.75 92.5998 392.3 96.3298 394.16 99.8498C395.09 101.61 396.1 103.32 397.18 104.98C408.56 122.38 428.07 133.82 450 134.2C451.6 134.23 453.22 134.2 454.85 134.1C490.37 132.06 517.53 101.62 515.49 66.0798L515.48 66.1098Z" fill="white"/>
<path d="M247.08 160.81L315.67 156.88L315.65 156.53L316.47 156.48L316.45 156.13L317.27 156.08L317.25 155.73L318.07 155.68L318.05 155.33L318.87 155.28L318.85 154.93L319.67 154.88L319.65 154.53L320.47 154.48L320.45 154.13L321.27 154.08L321.25 153.73L322.07 153.68L322.05 153.33L322.87 153.28L322.85 152.93L323.67 152.88L323.65 152.53L324.47 152.48L324.45 152.13L325.27 152.08L325.25 151.73L326.07 151.68L326.05 151.33L326.87 151.28L326.85 150.93L327.67 150.88L327.65 150.53L328.47 150.48L328.45 150.13L329.27 150.08L329.25 149.73L330.07 149.68L330.05 149.33L330.87 149.28L330.85 148.93L331.67 148.88L331.65 148.53L332.47 148.48L332.45 148.13L333.27 148.08L333.25 147.73L334.07 147.68L334.05 147.33L334.87 147.28L334.85 146.93L335.67 146.88L335.65 146.53L336.47 146.48L336.39 145.14L336.84 145.11L334.54 158.14L349.43 157.29L349.49 156.97L349.96 156.94L350.02 156.62L350.49 156.59L350.55 156.27L351.02 156.24L351.08 155.92L351.55 155.89L351.61 155.57L352.08 155.54L352.14 155.22L352.61 155.19L352.67 154.87L353.14 154.84L353.2 154.52L353.67 154.49L353.73 154.17L354.2 154.14L354.26 153.82L354.73 153.79L354.79 153.47L355.26 153.44L355.32 153.12L355.79 153.09L355.85 152.77L356.32 152.74L356.38 152.42L356.85 152.39L356.91 152.07L357.38 152.04L357.44 151.72L357.91 151.69L357.97 151.37L358.44 151.34L358.5 151.02L358.97 150.99L359.03 150.67L359.5 150.64L359.56 150.32L360.03 150.29L360.09 149.97L360.56 149.94L360.62 149.62L361.09 149.59L361.15 149.27L361.62 149.24L361.68 148.92L362.15 148.89L362.21 148.57L362.68 148.54L362.74 148.22L363.21 148.19L363.56 146.2C363.67 145.94 363.77 145.67 363.83 145.38L372.66 102.24C381.62 131.09 409.3 151.25 440.82 149.45C449.31 148.96 457.69 146.87 465.39 143.28C474.56 139 482.03 131.88 490.25 126.21C492.98 124.33 495.57 122.25 498 120C512.55 106.52 521.2 86.89 519.98 65.59C519.86 63.41 519.63 61.25 519.3 59.11C518.81 55.9 518.1 52.75 517.18 49.68C516.56 47.63 515.85 45.61 515.05 43.63C513.85 40.66 512.43 37.78 510.82 35.01C509.75 33.16 508.59 31.36 507.34 29.61C504.85 26.12 502.01 22.84 498.86 19.82C495.92 17.01 492.76 14.48 489.43 12.25C488.32 11.51 487.19 10.8 486.04 10.13C481.45 7.43998 476.57 5.28998 471.49 3.73998C470.48 3.42998 469.45 3.13998 468.42 2.87998C464.3 1.81998 460.07 1.14998 455.77 0.87998C454.7 0.80998 453.62 0.76998 452.54 0.74998L452.5 2.92998V3.58998L452.46 5.09998L452.49 3.58998L452.5 2.92998C452.5 2.92998 452.54 0.74998 452.53 0.74998C450.82 0.71998 449.08 0.74998 447.37 0.84998C439.09 1.31998 431.23 3.24998 424.02 6.37998C418.87 8.60998 414.06 11.45 409.67 14.8C400.99 21.42 392.73 30.28 385.68 38.6L392.59 4.82998C392.85 3.53998 392.5 2.19998 391.64 1.19998C390.85 0.27998 389.7 -0.25002 388.5 -0.27002C388.4 -0.27002 388.29 -0.27002 388.19 -0.27002L373.95 0.549981C371.29 2.65998 360.52 10.17 360.5 11.44L339.25 131.62L332.38 11.81L332.13 7.46998L327.79 7.71998L262.16 11.48L257.82 11.73C254.35 14.45 243.6 22.6 239.58 26.17C239.15 26.38 239.93 32.93 239.96 33.53C240.17 37.13 240.37 40.73 240.58 44.34C241.17 54.56 241.75 64.79 242.34 75.01C243.01 86.78 243.69 98.55 244.36 110.32C244.95 120.66 245.55 131 246.14 141.33C246.48 147.26 246.82 153.18 247.16 159.11C247.19 159.59 247.22 160.07 247.24 160.55L247.08 160.81ZM458.5 5.76998C460.54 5.99998 462.55 6.32998 464.53 6.74998C466.51 7.16998 468.46 7.67998 470.37 8.27998C473.24 9.17998 476.03 10.27 478.71 11.55C480.73 12.51 482.68 13.56 484.58 14.72C485.21 15.1 485.84 15.5 486.46 15.91C495.52 21.86 503.03 30.04 508.15 39.73C509.55 42.37 510.77 45.13 511.79 47.98C513.84 53.68 515.11 59.77 515.48 66.13C517.52 101.66 490.36 132.11 454.84 134.15C453.21 134.24 451.6 134.28 449.99 134.25C428.06 133.88 408.55 122.44 397.17 105.03C396.09 103.37 395.08 101.66 394.15 99.9C392.29 96.38 390.74 92.66 389.55 88.77C388.06 83.91 387.13 78.8 386.82 73.5C386.57 69.06 386.77 64.7 387.38 60.46C387.84 57.28 388.54 54.18 389.45 51.16C390.06 49.15 390.76 47.18 391.56 45.25C392.36 43.32 393.24 41.44 394.22 39.61C395.68 36.86 397.33 34.23 399.16 31.74C400.38 30.08 401.68 28.47 403.05 26.93C405.79 23.85 408.83 21.04 412.12 18.53C412.94 17.9 413.78 17.3 414.63 16.71C416.34 15.53 418.1 14.44 419.93 13.43C421.76 12.42 423.63 11.49 425.56 10.66C426.52 10.24 427.5 9.84998 428.49 9.47998C430.47 8.73998 432.5 8.08998 434.56 7.53998C435.59 7.26998 436.64 7.01998 437.7 6.78998C440.87 6.11998 444.12 5.67998 447.46 5.48998C448.27 5.43998 449.08 5.40998 449.89 5.39998C450.7 5.37998 451.5 5.37998 452.3 5.39998C454.39 5.43998 456.45 5.56998 458.49 5.79998L458.5 5.76998ZM331.56 76.65L335.25 140.98L269.62 144.74L262.24 16.08L327.87 12.32L331.56 76.65ZM374.01 5.19998L374.04 5.05998L388.28 4.23998L388.25 4.37998L359.52 144.79L345.28 145.61L374.01 5.19998Z" fill="#202124"/>
<path d="M686.43 322.72C686.56 323.42 687.15 323.95 687.87 323.97C695.05 324.25 727.55 323.75 729.38 323.78C731.12 323.81 747.77 315.65 752.28 314.12C752.57 314.02 752.84 313.94 753.09 313.86C753.13 313.85 753.18 313.83 753.22 313.82C753.37 313.78 753.5 313.7 753.62 313.62C753.65 313.6 753.68 313.59 753.71 313.57C755.31 312.69 756.4 311 756.39 309.06L755.83 168.9C755.82 166.12 753.55 163.81 750.76 163.77C750.74 163.77 750.68 163.77 750.65 163.77L684.22 164.04C683.22 164.04 682.26 164.34 681.44 164.87C681.16 164.95 680.9 165.1 680.71 165.33L661.01 182.89C660.71 183.24 660.58 183.71 660.66 184.17L686.42 322.72H686.43ZM750.7 167.15C751.67 167.17 752.45 167.95 752.45 168.92L752.98 300.99L753.01 309.07C753.01 310.05 752.22 310.85 751.24 310.86L709.67 311.03C709.67 311.03 709.64 311.03 709.63 311.03C708.78 311.02 708.06 310.4 707.91 309.57L682.5 169.51C682.3 168.42 683.14 167.42 684.25 167.41L694.96 167.37L750.67 167.15C750.67 167.15 750.7 167.15 750.71 167.15H750.7Z" fill="#202124"/>
<path d="M763.85 372.98L740.33 346.08L730.67 334.92C730.51 334.74 730.33 334.59 730.15 334.44L727.33 331.21C726.77 330.57 725.78 330.56 725.2 331.18L708.76 343.34C708.68 343.43 708.61 343.53 708.55 343.63L684.69 387.8C684.16 388.78 684.91 389.97 686.02 389.91L744.53 385.89C744.86 385.87 745.17 385.75 745.41 385.53L763.73 374.99C764.31 374.47 764.37 373.57 763.85 372.98ZM708.83 373.56L726.15 337.4C726.36 336.95 726.8 336.72 727.24 336.73C727.56 336.73 727.88 336.87 728.11 337.14L756.17 369.54C756.81 370.27 756.34 371.42 755.37 371.5L709.99 375.26C709.99 375.26 709.91 375.26 709.87 375.26C709.02 375.25 708.45 374.35 708.83 373.56Z" fill="#202124"/>
<path d="M753.01 309.08L752.98 301L752.45 168.93C752.45 167.96 751.67 167.17 750.7 167.16C750.69 167.16 750.67 167.16 750.66 167.16L694.95 167.38L684.24 167.42C683.13 167.42 682.3 168.43 682.49 169.52L707.9 309.58C708.05 310.42 708.77 311.03 709.62 311.04C709.63 311.04 709.65 311.04 709.66 311.04L751.23 310.87C752.21 310.87 753.01 310.07 753 309.08H753.01Z" fill="white"/>
<path d="M756.17 369.54L728.11 337.14C727.88 336.87 727.56 336.74 727.24 336.73C726.8 336.73 726.36 336.96 726.15 337.4L708.83 373.56C708.45 374.35 709.03 375.24 709.87 375.26C709.91 375.26 709.95 375.26 709.99 375.26L755.37 371.5C756.34 371.42 756.8 370.28 756.17 369.54Z" fill="white"/>
<path d="M388.47 400.84L370.91 192.98L441.61 187.01L459.17 394.87L388.47 400.84Z" fill="white"/>
<path d="M461 394.71L443.44 186.85C443.35 185.84 442.47 185.1 441.46 185.18L370.76 191.15C370.23 191.19 369.78 191.47 369.47 191.86L349.4 209.67L365.72 420.22L437.26 414.67L460.25 396.33C460.25 396.33 460.32 396.27 460.36 396.24L460.4 396.21C460.46 396.16 460.52 396.1 460.58 396.04C460.89 395.67 461.05 395.19 461 394.71ZM439.95 188.98L457.2 393.2L390.15 398.86L372.9 194.64L439.95 188.98Z" fill="#202124"/>
<path d="M498.4 389.27L480.84 181.41L587.49 172.4C601.39 171.23 612.64 171.75 621.25 173.96C629.85 176.18 636.63 180.12 641.57 185.78C646.51 191.45 650.12 198.75 652.4 207.69C654.68 216.63 656.33 227.24 657.37 239.52C658.31 250.6 658.49 260.62 657.93 269.6C657.37 278.58 655.24 286.41 651.55 293.11C647.86 299.81 641.87 305.19 633.59 309.23C625.31 313.28 614.02 315.9 599.72 317.11L563.77 320.15L569.1 383.29L498.4 389.26V389.27ZM559.6 270.91L568.97 270.12C573.4 269.75 576.86 269.25 579.34 268.64C581.82 268.03 583.66 266.91 584.84 265.28C586.02 263.66 586.68 261.32 586.83 258.26C586.98 255.21 586.83 250.96 586.36 245.52C585.9 240.08 585.33 235.77 584.66 232.58C583.98 229.39 582.93 227.15 581.51 225.85C580.08 224.55 578.09 223.81 575.54 223.62C572.99 223.43 569.5 223.52 565.07 223.9L555.7 224.69L559.61 270.92L559.6 270.91Z" fill="white"/>
<path d="M659.19 239.37C658.15 227.04 656.46 216.23 654.17 207.24C651.83 198.07 648.06 190.45 642.95 184.58C637.78 178.66 630.64 174.49 621.7 172.19C612.93 169.94 601.37 169.39 587.34 170.58L480.69 179.59C480.24 179.63 479.85 179.83 479.56 180.13L459.26 198.14L475.58 408.69L547.19 403.14L569.95 384.92C570.16 384.81 570.34 384.66 570.5 384.48C570.81 384.11 570.97 383.63 570.92 383.15L567.19 338.94C584.68 337.89 602.24 336.93 618.01 328.54C626.95 323.79 634.76 317.23 641.51 309.74C646.36 304.36 650.75 298.54 654.07 292.08C657.62 285.18 659.27 277.42 659.75 269.72C660.31 260.7 660.12 250.49 659.18 239.38L659.19 239.37ZM656.1 269.49C655.56 278.15 653.49 285.81 649.94 292.23C648.26 295.28 646.04 298.05 643.32 300.54L639.29 303.75C637.31 305.14 635.15 306.43 632.79 307.59C624.75 311.52 613.57 314.11 599.57 315.29L563.62 318.33C563.14 318.37 562.69 318.6 562.38 318.97C562.07 319.34 561.91 319.82 561.96 320.3L567.14 381.62L500.09 387.28L482.84 183.06L587.67 174.2C601.29 173.05 612.44 173.56 620.82 175.71C629.02 177.82 635.55 181.61 640.22 186.96C644.95 192.39 648.46 199.51 650.65 208.12C652.89 216.92 654.55 227.53 655.57 239.66C656.49 250.59 656.68 260.62 656.13 269.47L656.1 269.49Z" fill="#202124"/>
<path d="M586.46 232.2C585.69 228.6 584.48 226.08 582.74 224.49C581.01 222.92 578.63 222.01 575.67 221.79C573.03 221.6 569.4 221.69 564.91 222.07L555.54 222.86C554.53 222.95 553.79 223.83 553.87 224.84L557.78 271.07C557.82 271.55 558.05 272 558.42 272.31C558.74 272.58 559.15 272.73 559.57 272.74C559.63 272.74 559.69 272.74 559.75 272.74L569.12 271.95C573.71 271.56 577.19 271.06 579.78 270.42C582.68 269.7 584.88 268.34 586.32 266.36C587.72 264.43 588.49 261.81 588.66 258.36C588.81 255.22 588.66 250.86 588.19 245.38C587.73 239.9 587.14 235.47 586.45 232.21L586.46 232.2ZM561.28 268.93L558.56 236.73C559.67 236.73 560.68 236.76 561.57 236.83C564.53 237.05 566.9 237.96 568.64 239.53C570.37 241.11 571.59 243.63 572.36 247.24C573.05 250.5 573.63 254.93 574.1 260.41C574.33 263.11 574.48 265.53 574.56 267.67C574.56 267.67 574.54 267.67 574.53 267.67C574.12 267.73 573.7 267.78 573.26 267.84C572.37 267.95 571.42 268.06 570.41 268.15C569.9 268.2 569.38 268.25 568.84 268.29L561.3 268.93H561.28Z" fill="#202124"/>
<path d="M214.8 415.269L197.24 207.409L267.94 201.439L281.01 356.129L350.5 350.259L354.99 403.429L214.8 415.269Z" fill="white"/>
<path d="M356.81 403.28L352.32 350.11C352.23 349.1 351.35 348.36 350.34 348.44L282.67 354.16L269.76 201.29C269.67 200.28 268.79 199.54 267.78 199.62L197.08 205.59C196.66 205.63 196.29 205.81 196 206.07L176.44 223.52L192.76 434.07L333.16 423.54L355.88 405.02C356.07 404.91 356.24 404.78 356.38 404.61C356.69 404.24 356.85 403.76 356.8 403.28H356.81ZM266.27 203.42L279.18 356.29C279.27 357.3 280.15 358.05 281.16 357.96L348.83 352.24L353.01 401.77L216.47 413.3L199.22 209.08L266.27 203.42Z" fill="#202124"/>
<path d="M39 433.569L21.4399 225.709L167.67 213.359L171.93 263.819L96.1001 270.229L99.1899 306.789L163.84 301.329L168.1 351.789L103.45 357.249L109.4 427.639L39 433.589V433.569Z" fill="white"/>
<path d="M173.75 263.65L169.49 213.19C169.4 212.18 168.52 211.44 167.51 211.52L21.28 223.87C20.81 223.91 20.4001 224.13 20.1001 224.45L0 242.03L16.3201 452.58L87.9299 447.03L110.52 429.04C110.99 428.67 111.27 428.09 111.21 427.45L106.71 374.16L149.59 370.38L169.28 353.16H169.26C169.34 353.09 169.42 353.02 169.49 352.93C169.8 352.56 169.96 352.08 169.92 351.6L165.66 301.14C165.57 300.13 164.69 299.39 163.68 299.47L100.85 304.78L99.3601 287.14L153.45 282.37L173.02 265.25C173.13 265.17 173.24 265.07 173.33 264.97C173.64 264.6 173.8 264.12 173.76 263.64L173.75 263.65ZM162.17 303.28L166.12 350.09L103.29 355.4C102.28 355.49 101.54 356.37 101.62 357.38L107.41 425.95L40.6599 431.59L23.4099 227.37L165.99 215.33L169.94 262.14L95.9299 268.39C94.9199 268.48 94.18 269.36 94.26 270.37L97.3501 306.93C97.3901 307.41 97.62 307.86 97.99 308.17C98.36 308.48 98.8401 308.63 99.3201 308.6L162.15 303.29L162.17 303.28Z" fill="#202124"/>
</svg>
