<svg width="269" height="177" viewBox="0 0 269 177" fill="none" xmlns="http://www.w3.org/2000/svg">
<path d="M70.8622 27.833L40.2695 7.2575L47.9714 0L70.8622 27.833Z" fill="#FFBB00"/>
<path d="M225.291 144.207L244.267 173.86L249.361 171.801L225.291 144.207Z" fill="#FFBB00"/>
<path d="M52.9222 149.823L36.5664 172.433L42.5151 175.9L52.9222 149.823Z" fill="#FFBB00"/>
<path d="M215.622 14.2764L199.813 32.5516L228.608 14.2764H215.622Z" fill="#FFBB00"/>
<path d="M74.888 32.4333L33.6917 26.0978L49.9327 68.875L0.420898 77.5894L28.5441 102.895L5.96755 150.077L56.2713 144.134L70.5414 177L87.3657 140.966L129.946 167.107L150.147 143.738L163.613 156.412L171.932 141.758L215.199 177L224.215 133.836L268.579 138.986L239.933 109.213L265.514 71.8463L229.366 73.6297L234.517 26.0978L194.508 36.7921L191.34 12.6287L157.275 31.6414L144.996 12.6287L124.004 34.4162L91.126 7.87695L74.888 32.4333Z" fill="#FFBB00"/>
<path d="M128.314 52.0001L136.581 11.5957L132.482 11.8315L124.215 52.2328L128.314 52.0001Z" fill="#E8EAED"/>
<path d="M120.267 32.3918L119.206 13.8809L100.323 14.963L102.445 51.9849L121.328 50.9028L120.267 32.3918Z" fill="#E8EAED"/>
<path d="M173.192 29.3565C173.086 27.5277 172.721 25.7746 172.131 24.1363C171.835 23.3171 171.484 22.5222 171.082 21.7635C169.61 18.9765 167.449 16.6218 164.841 14.908C164.662 14.7901 164.484 14.6782 164.3 14.5664C163.752 14.2339 163.19 13.9286 162.61 13.6536C161.836 13.2878 161.035 12.9734 160.21 12.7135C159.66 12.5412 159.097 12.3931 158.529 12.2752C157.958 12.1543 157.381 12.0606 156.794 11.9941C156.208 11.9276 155.612 11.8883 155.011 11.8792C154.781 11.8762 154.548 11.8762 154.316 11.8792C154.083 11.8853 153.85 11.8944 153.617 11.9065C152.659 11.9609 151.722 12.0878 150.809 12.2813C150.504 12.3447 150.205 12.4173 149.905 12.4959C149.31 12.653 148.727 12.8404 148.158 13.0551C147.874 13.1608 147.593 13.2757 147.315 13.3966C146.759 13.6354 146.218 13.9044 145.695 14.1946C145.172 14.4848 144.661 14.8022 144.171 15.1407C143.927 15.31 143.685 15.4853 143.449 15.6667C142.503 16.3891 141.629 17.1992 140.84 18.0848C140.444 18.5261 140.073 18.9886 139.722 19.4692C139.196 20.1886 138.718 20.9443 138.298 21.7332C138.017 22.2592 137.763 22.8002 137.534 23.3564C137.304 23.9096 137.101 24.4778 136.926 25.0582C136.663 25.9257 136.464 26.8204 136.331 27.7363C136.152 28.9545 136.095 30.2089 136.167 31.4875C136.255 33.0109 136.524 34.4829 136.953 35.8794C137.295 36.9978 137.742 38.0679 138.277 39.0805C138.546 39.5883 138.836 40.081 139.148 40.5556C142.421 45.5642 148.037 48.8559 154.346 48.9617C154.808 48.9707 155.274 48.9617 155.739 48.9345C165.962 48.3481 173.776 39.5883 173.189 29.3625L173.192 29.3565Z" fill="#E8EAED"/>
<path d="M95.9589 56.6093L115.697 55.4788L115.691 55.379L115.927 55.367L115.921 55.2672L116.157 55.2551L116.151 55.1554L116.386 55.1433L116.38 55.0435L116.616 55.0314L116.61 54.9317L116.846 54.9196L116.84 54.8199L117.075 54.8078L117.069 54.708L117.305 54.6959L117.299 54.5962L117.535 54.5841L117.529 54.4843L117.765 54.4722L117.759 54.3725L117.994 54.3604L117.988 54.2607L118.224 54.2486L118.218 54.1488L118.454 54.1367L118.448 54.037L118.684 54.0249L118.678 53.9251L118.913 53.913L118.907 53.8133L119.143 53.8012L119.137 53.7015L119.373 53.6894L119.367 53.5896L119.602 53.5775L119.596 53.4778L119.832 53.4657L119.826 53.3659L120.062 53.3539L120.056 53.2541L120.292 53.242L120.286 53.1422L120.521 53.1302L120.515 53.0304L120.751 53.0183L120.745 52.9186L120.981 52.9065L120.975 52.8067L121.211 52.7947L121.204 52.6949L121.44 52.6828L121.434 52.5831L121.67 52.571L121.649 52.1871L121.779 52.181L121.117 55.9292L125.4 55.6843L125.415 55.5937L125.551 55.5846L125.566 55.4939L125.702 55.4848L125.717 55.3942L125.853 55.3851L125.868 55.2944L126.005 55.2854L126.02 55.1947L126.156 55.1856L126.171 55.0949L126.307 55.0859L126.322 54.9952L126.458 54.9861L126.473 54.8954L126.609 54.8863L126.624 54.7957L126.76 54.7866L126.775 54.6959L126.911 54.6869L126.926 54.5962L127.062 54.5871L127.078 54.4964L127.214 54.4874L127.229 54.3967L127.365 54.3876L127.38 54.2969L127.516 54.2879L127.531 54.1972L127.667 54.1881L127.682 54.0974L127.818 54.0883L127.833 53.9977L127.969 53.9886L127.984 53.8979L128.12 53.8889L128.136 53.7982L128.272 53.7891L128.287 53.6984L128.423 53.6894L128.438 53.5987L128.574 53.5896L128.589 53.4989L128.725 53.4899L128.74 53.3992L128.876 53.3901L128.891 53.2994L129.027 53.2904L129.042 53.1997L129.178 53.1906L129.193 53.1L129.329 53.0909L129.429 52.5196C129.462 52.444 129.49 52.3654 129.508 52.2838L132.047 39.8696C134.625 48.1699 142.59 53.9735 151.661 53.4536C154.104 53.3145 156.516 52.713 158.731 51.6793C161.37 50.449 163.519 48.3996 165.886 46.7674C166.672 46.2263 167.418 45.6278 168.114 44.981C172.3 41.1028 174.791 35.4535 174.437 29.3264C174.401 28.6977 174.337 28.0781 174.244 27.4614C174.105 26.5395 173.899 25.6327 173.633 24.7471C173.455 24.1576 173.252 23.5773 173.02 23.006C172.672 22.1506 172.267 21.3223 171.804 20.5244C171.496 19.9924 171.161 19.4755 170.804 18.9707C170.088 17.9641 169.271 17.021 168.362 16.1535C167.515 15.3434 166.605 14.615 165.647 13.9772C165.327 13.7626 165.003 13.56 164.671 13.3666C163.35 12.5928 161.944 11.9762 160.484 11.5288C160.191 11.4381 159.898 11.3565 159.602 11.2809C158.417 10.9787 157.199 10.7822 155.962 10.7036C155.654 10.6825 155.343 10.6704 155.031 10.6673L155.022 11.293V11.4835L155.013 11.9187L155.019 11.4835L155.022 11.293L155.031 10.6673C154.539 10.6583 154.04 10.6673 153.544 10.6976C151.159 10.8336 148.898 11.3898 146.825 12.2875C145.344 12.9283 143.959 13.7445 142.696 14.7087C140.199 16.613 137.82 19.1641 135.792 21.5551L137.781 11.8371C137.857 11.4653 137.757 11.0784 137.509 10.7943C137.282 10.5313 136.953 10.3771 136.605 10.3711C136.575 10.3711 136.545 10.3711 136.514 10.3711L132.416 10.6069C131.651 11.2144 128.55 13.3726 128.544 13.7414L122.429 48.3241L120.452 13.8472L120.379 12.5958C120.379 12.5958 119.131 12.6684 119.128 12.6684L100.242 13.7505L98.9937 13.823C97.9962 14.6059 94.901 16.9515 93.7463 17.9762C93.6224 18.0367 93.846 19.9228 93.8551 20.0921C93.9156 21.1289 93.973 22.1657 94.0335 23.2025C94.2027 26.1435 94.372 29.0876 94.5382 32.0287C94.7317 35.4172 94.9252 38.8026 95.1216 42.191C95.2909 45.1654 95.4632 48.1397 95.6325 51.114C95.7292 52.8188 95.8289 54.5236 95.9257 56.2284C95.9347 56.3675 95.9408 56.5065 95.9499 56.6425L95.9589 56.6093ZM156.797 11.9973C157.383 12.0638 157.963 12.1575 158.532 12.2784C159.103 12.3993 159.662 12.5474 160.212 12.7167C161.038 12.9736 161.839 13.288 162.612 13.6568C163.193 13.9318 163.755 14.2371 164.302 14.5696C164.483 14.6815 164.665 14.7933 164.843 14.9112C167.452 16.622 169.61 18.9798 171.085 21.7667C171.487 22.5284 171.838 23.3203 172.134 24.1395C172.723 25.7808 173.089 27.531 173.195 29.3597C173.781 39.5855 165.968 48.3452 155.745 48.9316C155.276 48.9589 154.811 48.9679 154.351 48.9588C148.04 48.853 142.427 45.5614 139.153 40.5527C138.842 40.0752 138.552 39.5825 138.283 39.0777C137.748 38.0651 137.303 36.992 136.959 35.8766C136.53 34.4801 136.261 33.0081 136.173 31.4847C136.1 30.2061 136.158 28.9516 136.336 27.7335C136.469 26.8206 136.669 25.9259 136.932 25.0554C137.107 24.475 137.309 23.9098 137.539 23.3536C137.769 22.8004 138.023 22.2564 138.304 21.7304C138.724 20.9415 139.199 20.1828 139.728 19.4664C140.078 18.9888 140.453 18.5263 140.846 18.082C141.635 17.1963 142.508 16.3863 143.455 15.6638C143.69 15.4825 143.932 15.3072 144.177 15.1379C144.667 14.7993 145.177 14.485 145.7 14.1918C146.223 13.8986 146.764 13.6356 147.321 13.3938C147.599 13.2729 147.88 13.161 148.164 13.0522C148.732 12.8376 149.316 12.6532 149.911 12.493C150.21 12.4144 150.51 12.3419 150.815 12.2784C151.725 12.085 152.665 11.958 153.623 11.9036C153.856 11.8915 154.088 11.8825 154.321 11.8764C154.554 11.8704 154.784 11.8704 155.016 11.8764C155.618 11.8855 156.213 11.9248 156.8 11.9913L156.797 11.9973ZM120.27 32.3945L121.331 50.9055L102.446 51.9876L100.324 14.9656L119.209 13.8835L120.27 32.3945ZM132.485 11.8341L132.494 11.7918L136.593 11.556L136.584 11.5983L128.317 51.9997L124.218 52.2354L132.485 11.8341Z" fill="#202124"/>
<path d="M222.387 103.199C222.423 103.401 222.595 103.552 222.801 103.558C224.868 103.64 234.218 103.495 234.747 103.504C235.248 103.513 240.036 101.164 241.336 100.726C241.421 100.699 241.496 100.672 241.569 100.65C241.581 100.647 241.596 100.641 241.605 100.638C241.647 100.626 241.687 100.605 241.72 100.581C241.729 100.575 241.738 100.572 241.747 100.566C242.207 100.312 242.521 99.8282 242.518 99.266L242.355 58.9342C242.352 58.1331 241.699 57.4712 240.898 57.4561C240.892 57.4561 240.874 57.4561 240.868 57.4561L221.752 57.5316C221.465 57.5316 221.187 57.6193 220.954 57.7704C220.872 57.7946 220.8 57.8369 220.742 57.9034L215.075 62.9574C214.987 63.0571 214.951 63.1931 214.975 63.3231L222.387 103.192V103.199ZM240.883 58.4324C241.161 58.4384 241.384 58.6621 241.387 58.9432L241.539 96.9476L241.548 99.2721C241.548 99.5562 241.321 99.7859 241.037 99.7859L229.073 99.8343C229.073 99.8343 229.067 99.8343 229.061 99.8343C228.816 99.8313 228.61 99.6529 228.565 99.4141L221.253 59.1125C221.196 58.7981 221.438 58.511 221.755 58.5079L224.838 58.4959L240.871 58.4324C240.871 58.4324 240.877 58.4324 240.883 58.4324Z" fill="#202124"/>
<path d="M244.664 117.662L237.896 109.921L235.115 106.711C235.07 106.659 235.018 106.617 234.967 106.571L234.154 105.644C233.994 105.459 233.707 105.456 233.54 105.634L228.807 109.135C228.783 109.159 228.764 109.189 228.746 109.219L221.879 121.93C221.725 122.211 221.942 122.552 222.263 122.537L239.099 121.38C239.193 121.374 239.283 121.337 239.353 121.274L244.625 118.242C244.794 118.091 244.809 117.834 244.661 117.665L244.664 117.662ZM228.831 117.828L233.815 107.424C233.876 107.294 234.003 107.227 234.13 107.23C234.22 107.23 234.314 107.27 234.381 107.348L242.454 116.673C242.639 116.885 242.503 117.214 242.225 117.236L229.166 118.318C229.166 118.318 229.142 118.318 229.13 118.318C228.885 118.315 228.722 118.055 228.831 117.828Z" fill="#202124"/>
<path d="M241.545 99.2723L241.536 96.9478L241.385 58.9435C241.385 58.6654 241.158 58.4387 240.88 58.4326C240.877 58.4326 240.874 58.4326 240.868 58.4326L224.836 58.4961L221.752 58.5082C221.435 58.5082 221.193 58.7984 221.251 59.1127L228.563 99.4144C228.605 99.6562 228.813 99.8315 229.058 99.8345C229.061 99.8345 229.064 99.8345 229.07 99.8345L241.034 99.7861C241.318 99.7861 241.545 99.5534 241.545 99.2723Z" fill="#FF5145"/>
<path d="M242.455 116.67L234.382 107.345C234.315 107.267 234.221 107.231 234.131 107.228C234.004 107.228 233.877 107.294 233.816 107.421L228.832 117.825C228.723 118.052 228.889 118.309 229.131 118.315C229.143 118.315 229.155 118.315 229.167 118.315L242.225 117.233C242.504 117.208 242.64 116.879 242.455 116.67Z" fill="#FF5145"/>
<path d="M136.648 125.679L131.594 65.8654L151.936 64.1455L156.99 123.959L136.648 125.679Z" fill="#428EFF"/>
<path d="M157.516 123.916L152.462 64.1031C152.438 63.813 152.184 63.6014 151.894 63.6226L131.551 65.3425C131.397 65.3546 131.267 65.4331 131.18 65.545L125.403 70.6715L130.098 131.258L150.685 129.662L157.299 124.385C157.299 124.385 157.32 124.37 157.329 124.361L157.341 124.352C157.359 124.336 157.377 124.321 157.393 124.303C157.483 124.197 157.526 124.058 157.513 123.919L157.516 123.916ZM151.459 64.7168L156.422 123.481L137.128 125.11L132.165 66.346L151.459 64.7168Z" fill="#202124"/>
<path d="M168.281 122.347L163.227 62.5338L193.916 59.9403C197.915 59.6018 201.152 59.7529 203.631 60.3907C206.107 61.0285 208.056 62.162 209.477 63.7942C210.898 65.4265 211.937 67.5273 212.593 70.0966C213.249 72.6689 213.724 75.7218 214.023 79.2584C214.292 82.4473 214.346 85.331 214.186 87.9123C214.023 90.4968 213.412 92.7487 212.351 94.6771C211.287 96.6056 209.565 98.1532 207.183 99.317C204.798 100.481 201.551 101.236 197.434 101.584L187.088 102.458L188.623 120.627L168.281 122.347ZM185.891 88.2872L188.587 88.0605C189.863 87.9516 190.857 87.8126 191.57 87.6343C192.284 87.459 192.813 87.1355 193.154 86.67C193.493 86.2045 193.683 85.5304 193.729 84.6508C193.771 83.7712 193.729 82.5501 193.593 80.9843C193.46 79.4186 193.296 78.1793 193.103 77.2604C192.906 76.3445 192.604 75.6976 192.196 75.3228C191.785 74.951 191.211 74.7364 190.476 74.679C189.742 74.6246 188.738 74.6518 187.463 74.7576L184.766 74.9843L185.891 88.2872Z" fill="#428EFF"/>
<path d="M214.549 79.2134C214.249 75.6647 213.763 72.5544 213.104 69.9669C212.43 67.3281 211.345 65.1337 209.875 63.447C208.388 61.7422 206.333 60.5422 203.761 59.8802C201.237 59.2303 197.909 59.0762 193.873 59.4177L163.184 62.0112C163.054 62.0233 162.942 62.0807 162.857 62.1654L157.018 67.3493L161.712 127.936L182.318 126.34L188.868 121.096C188.928 121.066 188.98 121.023 189.025 120.969C189.116 120.863 189.158 120.724 189.146 120.585L188.07 107.862C193.103 107.56 198.156 107.285 202.694 104.87C205.266 103.504 207.512 101.615 209.455 99.4594C210.852 97.9118 212.115 96.2342 213.07 94.3782C214.092 92.3923 214.567 90.1616 214.703 87.9429C214.866 85.3464 214.812 82.4083 214.539 79.2103L214.549 79.2134ZM213.66 87.8794C213.503 90.3732 212.907 92.5737 211.889 94.4236C211.405 95.3002 210.767 96.0982 209.984 96.8145L208.824 97.7395C208.252 98.1385 207.633 98.5103 206.953 98.8428C204.64 99.9732 201.421 100.72 197.392 101.058L187.045 101.932C186.906 101.944 186.776 102.011 186.688 102.116C186.598 102.222 186.555 102.361 186.567 102.5L188.058 120.147L168.764 121.776L163.801 63.0117L193.964 60.4636C197.881 60.1311 201.092 60.2792 203.501 60.8988C205.861 61.5064 207.738 62.5976 209.084 64.1361C210.444 65.6989 211.453 67.7452 212.085 70.2239C212.729 72.7539 213.206 75.8068 213.5 79.298C213.766 82.4446 213.82 85.3313 213.66 87.8764V87.8794Z" fill="#202124"/>
<path d="M193.617 77.1485C193.396 76.1117 193.045 75.3863 192.547 74.9299C192.048 74.4795 191.365 74.2165 190.512 74.153C189.751 74.0986 188.711 74.1228 187.417 74.2316L184.721 74.4583C184.431 74.4825 184.216 74.7364 184.24 75.0266L185.365 88.3295C185.377 88.4685 185.443 88.5985 185.549 88.6862C185.643 88.7647 185.761 88.807 185.878 88.8101C185.897 88.8101 185.915 88.8101 185.933 88.8101L188.629 88.5834C189.95 88.4715 190.954 88.3264 191.694 88.1421C192.528 87.9365 193.16 87.5436 193.577 86.9753C193.982 86.4191 194.203 85.6665 194.251 84.672C194.294 83.7682 194.251 82.5138 194.115 80.936C193.982 79.3611 193.813 78.0855 193.617 77.1455V77.1485ZM186.371 87.7189L185.588 78.4543C185.909 78.4543 186.199 78.4634 186.453 78.4815C187.302 78.545 187.988 78.808 188.487 79.2583C188.986 79.7148 189.336 80.4402 189.557 81.477C189.757 82.414 189.923 83.6896 190.056 85.2675C190.122 86.0443 190.165 86.7395 190.189 87.3562H190.183C190.065 87.3743 189.944 87.3894 189.817 87.4045C189.56 87.4378 189.288 87.465 188.998 87.4952C188.853 87.5103 188.702 87.5224 188.547 87.5345L186.377 87.7189H186.371Z" fill="#202124"/>
<path d="M86.6731 129.831L81.6191 70.0178L101.962 68.2979L105.722 112.81L125.717 111.12L127.011 126.421L86.6701 129.828L86.6731 129.831Z" fill="#428EFF"/>
<path d="M127.537 126.379L126.244 111.079C126.22 110.788 125.966 110.577 125.675 110.598L106.203 112.242L102.488 68.253C102.464 67.9628 102.21 67.7482 101.92 67.7724L81.5773 69.4923C81.4564 69.5014 81.3506 69.5558 81.266 69.6313L75.6377 74.652L80.3319 135.239L120.733 132.207L127.271 126.878C127.326 126.848 127.374 126.809 127.416 126.76C127.507 126.654 127.549 126.515 127.537 126.376V126.379ZM101.485 68.8696L105.2 112.859C105.224 113.149 105.481 113.364 105.768 113.34L125.24 111.695L126.443 125.947L87.1542 129.266L82.1909 70.5019L101.485 68.8726V68.8696Z" fill="#202124"/>
<path d="M36.0823 135.093L31.0283 75.2802L73.1073 71.7256L74.3345 86.2436L52.5136 88.0874L53.4023 98.6064L72.007 97.0346L73.2342 111.553L54.6295 113.124L56.3404 133.38L36.0823 135.09V135.093Z" fill="#428EFF"/>
<path d="M74.8607 86.2016L73.6335 71.6837C73.6093 71.3935 73.3554 71.1788 73.0652 71.203L30.9863 74.7577C30.8503 74.7698 30.7324 74.8333 30.6477 74.924L24.8623 79.981L29.5566 140.568L50.1623 138.972L56.6641 133.797C56.7971 133.691 56.8787 133.522 56.8636 133.341L55.5669 118.006L67.9055 116.918L73.57 111.964H73.564C73.5882 111.946 73.6124 111.922 73.6305 111.898C73.7212 111.792 73.7635 111.653 73.7514 111.514L72.5242 96.9957C72.5 96.7055 72.2431 96.4939 71.9559 96.5151L53.8772 98.0416L53.4479 92.9664L69.0118 91.5942L74.6431 86.6702C74.6763 86.646 74.7066 86.6188 74.7307 86.5886C74.8214 86.4828 74.8637 86.3437 74.8517 86.2047L74.8607 86.2016ZM71.5267 97.6063L72.6632 111.075L54.5845 112.602C54.2943 112.626 54.0797 112.88 54.1039 113.17L55.7694 132.902L36.5632 134.525L31.5999 75.7613L72.63 72.2943L73.7665 85.7634L52.4686 87.5619C52.1784 87.586 51.9638 87.8399 51.988 88.1301L52.8767 98.6491C52.8887 98.7882 52.9552 98.9182 53.061 99.0058C53.1668 99.0965 53.3059 99.1388 53.4449 99.1267L71.5237 97.6003L71.5267 97.6063Z" fill="#202124"/>
</svg>
