<svg width="98" height="98" viewBox="0 0 98 98" fill="none" xmlns="http://www.w3.org/2000/svg">
<path d="M46.462 17.0801C78.812 15.3301 68.302 42.8401 68.302 42.8401C95.362 43.1701 83.302 80.3901 83.302 80.3901L79.302 84.3901H10.462C9.49198 81.6901 8.03198 78.4001 8.00198 74.3301C7.81198 55.8401 21.342 58.5301 21.342 58.5301C16.912 48.9101 13.762 18.8501 46.462 17.0701V17.0801Z" fill="#202124" stroke="#202124" stroke-width="2" stroke-linejoin="round"/>
<path d="M50.462 13.0801C82.812 11.3301 72.302 38.8401 72.302 38.8401C103.952 39.2301 83.302 80.3901 83.302 80.3901H14.462C13.492 77.6901 12.032 74.4001 12.002 70.3301C11.812 51.8401 25.342 54.5301 25.342 54.5301C20.912 44.9101 17.762 14.8501 50.462 13.0701V13.0801Z" fill="#E8EAED" stroke="#202124" stroke-width="2" stroke-linejoin="round"/>
</svg>
