<svg width="98" height="98" viewBox="0 0 98 98" fill="none" xmlns="http://www.w3.org/2000/svg">
<path d="M60.568 16.3412C61.258 15.7061 61.958 15.0891 62.658 14.4721C62.898 14.2544 64.528 13.2019 64.528 12.9025C64.528 12.9025 62.098 19.4987 62.958 22.4202C67.668 38.4707 84.188 58.1324 75.738 76.3332C68.158 92.665 38.848 100.885 21.988 83.1109C6.56801 66.8336 31.588 37.636 34.138 29.2796L36.378 27.2472C36.378 27.2472 40.448 39.6956 38.368 43.7513C35.278 49.7759 42.398 49.1499 36.738 34.6237C30.558 18.7819 53.628 8.52917 53.628 8.52917C53.628 8.52917 49.408 12.9841 50.128 26.7209C50.848 40.4668 61.858 43.4882 56.568 34.1519C56.358 33.789 56.168 33.4079 55.988 33.0359C54.628 30.196 53.928 27.0022 54.938 23.9718C55.968 20.9141 58.158 18.5551 60.558 16.3503L60.568 16.3412Z" fill="#202124" stroke="#202124" stroke-width="1.96" stroke-linejoin="round"/>
<path d="M64.5281 12.9028C60.4481 30.6227 90.4281 49.5313 79.6181 72.8131C72.0381 89.1449 42.7281 97.3652 25.8681 79.5908C10.4481 63.3135 35.8281 36.6383 36.3781 27.2384C36.3781 27.2384 39.2481 33.1814 35.5281 40.4036C32.4381 46.4282 46.2781 45.6207 40.6081 31.0945C34.4281 15.2527 57.4981 5 57.4981 5C57.4981 5 53.2781 9.45494 53.9981 23.1918C54.7181 36.9377 65.7281 39.959 60.4381 30.6227C60.2281 30.2598 60.0381 29.8787 59.8581 29.5067C55.4681 20.3428 64.5181 12.9028 64.5181 12.9028H64.5281Z" fill="#FFBB00" stroke="#202124" stroke-width="1.96" stroke-linejoin="round"/>
</svg>
