<svg width="98" height="98" viewBox="0 0 98 98" fill="none" xmlns="http://www.w3.org/2000/svg">
<path d="M41.5615 97.0003L39.7721 85.7365C38.6397 85.3215 37.4467 84.751 36.1933 84.0335C34.9398 83.316 33.842 82.5726 32.8824 81.7946L22.3361 86.6182L13 71.2223L23.6846 63.1656C23.5636 62.6297 23.4945 63.7448 23.4599 63.0619C23.4253 62.379 23.4167 61.7652 23.4167 61.2292C23.4167 60.6933 23.4339 60.0795 23.4599 59.3966C23.4858 58.7137 23.5636 58.0999 23.6846 57.564L14.0287 50.5014L22.3447 35.8403L25.8025 32.3825C25.8025 32.3825 34.9485 39.1511 36.2019 38.4336C37.4554 37.7161 38.6483 37.1802 39.7807 36.8258L41.5702 25.4668L44.5093 22.009L59.8015 36.7307C60.9339 37.1456 62.1441 37.6988 63.4235 38.3818C64.7029 39.0647 65.7921 39.8254 66.6912 40.6639L77.2375 35.8403L89.0113 47.7524L75.8976 57.3911C76.0186 57.9875 76.0878 58.6272 76.1223 59.3102C76.1569 59.9931 76.1656 60.6328 76.1656 61.2292C76.1656 61.8257 76.1483 62.4481 76.1223 63.1051C76.0964 63.7621 76.0186 64.3845 75.8976 64.981L86.418 72.8216L78.318 87.3184L66.6912 81.7859C65.7403 82.5639 64.651 83.3246 63.4235 84.0681C62.196 84.8115 61.4699 93.5338 61.4699 93.5338L58.0121 96.9917H41.5615V97.0003Z" fill="#202124" stroke="#202124" stroke-width="2" stroke-linejoin="round"/>
<path d="M45.0192 93.5421L43.2298 82.2783C42.0974 81.8633 40.9044 81.2928 39.651 80.5753C38.3975 79.8578 37.2997 79.1144 36.3401 78.3364L25.7938 83.16L17.4778 68.4989L27.1337 61.4363C27.0127 60.9004 26.9435 60.2866 26.909 59.6037C26.8744 58.9208 26.8657 58.307 26.8657 57.771C26.8657 57.2351 26.883 56.6213 26.909 55.9384C26.9349 55.2555 27.0127 54.6417 27.1337 54.1058L17.4778 47.0432L25.7938 32.3821L36.3401 37.2057C37.291 36.4277 38.3975 35.6843 39.651 34.9668C40.9044 34.2493 42.0974 33.7133 43.2298 33.3589L45.0192 22H61.4698L63.2592 33.2638C64.3916 33.6788 65.6019 34.232 66.8812 34.9149C68.1606 35.5978 69.2498 36.3586 70.1489 37.1971L80.6952 32.3734L89.0112 47.0345L79.3553 53.9156C79.4763 54.5121 79.5455 55.1518 79.58 55.8347C79.6146 56.5176 79.6233 57.1573 79.6233 57.7538C79.6233 58.3502 79.606 58.9726 79.58 59.6296C79.5541 60.2866 79.4763 60.909 79.3553 61.5055L89.0112 68.4816L80.6952 83.1427L70.1489 78.3191C69.198 79.0971 68.1088 79.8578 66.8812 80.6012C65.6537 81.3447 64.4521 81.8979 63.2592 82.2523L61.4698 93.5162H45.0192V93.5421Z" fill="#38A852" stroke="#202124" stroke-width="1.95" stroke-linejoin="round"/>
</svg>
