<svg width="98" height="98" viewBox="0 0 98 98" fill="none" xmlns="http://www.w3.org/2000/svg">
<path d="M71.9653 55.06C74.3953 58.77 75.7653 63.06 75.7653 67.62C75.7653 81.74 63.9253 91.54 47.6753 91.54C35.2853 91.54 21.7253 83.38 18.7053 70.87C16.0653 59.93 21.2953 50.51 26.7953 41.77C29.9553 36.76 46.3353 10 46.3353 10L51.3353 6L71.8653 54.9L71.9553 55.06H71.9653Z" fill="#202124" stroke="#202124" stroke-width="2" stroke-linejoin="round"/>
<path d="M76.9658 51.06C79.3958 54.77 80.7658 59.06 80.7658 63.62C80.7658 77.74 67.5958 89.2 51.3458 89.2C35.0958 89.2 21.9258 77.74 21.9258 63.62C21.9258 59.05 23.3058 54.77 25.7158 51.06L25.7658 50.97L51.3458 6L76.8758 50.9L76.9658 51.06Z" fill="#428EFF" stroke="#202124" stroke-width="2" stroke-linejoin="round"/>
</svg>
