<svg width="68" height="60" viewBox="0 0 68 60" fill="none" xmlns="http://www.w3.org/2000/svg">
<path d="M32.4006 4.30662C58.624 2.88804 50.1045 25.1881 50.1045 25.1881C72.0397 25.4556 62.2637 55.6268 62.2637 55.6268L59.0212 58.8692H3.21838C2.43208 56.6806 1.24858 54.0136 1.22426 50.7144C1.07025 35.7261 12.0379 37.9067 12.0379 37.9067C8.44686 30.1085 5.89341 5.74141 32.4006 4.29851V4.30662Z" fill="black" stroke="black" stroke-width="0.688103" stroke-linejoin="round"/>
<path d="M35.6428 1.06394C61.8662 -0.354636 53.3466 21.9454 53.3466 21.9454C79.0027 22.2616 62.2634 55.6266 62.2634 55.6266H6.46056C5.67426 53.4379 4.49077 50.771 4.46645 47.4717C4.31243 32.4834 15.2801 34.664 15.2801 34.664C11.689 26.8659 9.1356 2.49873 35.6428 1.05584V1.06394Z" fill="#E8EAED" stroke="black" stroke-width="0.688103" stroke-linejoin="round"/>
</svg>
