<svg width="67" height="67" viewBox="0 0 67 67" fill="none" xmlns="http://www.w3.org/2000/svg">
<path d="M42.2889 9.37131C39.5387 21.3156 59.747 34.0611 52.4604 49.7545C47.3511 60.7631 27.5944 66.304 16.2297 54.323C5.83569 43.3511 22.9433 25.3705 23.3141 19.0344C23.3141 19.0344 25.2486 23.0403 22.7411 27.9085C20.6583 31.9695 29.9873 31.4252 26.1654 21.6336C21.9997 10.9553 37.5502 4.04437 37.5502 4.04437C37.5502 4.04437 34.7057 7.04727 35.191 16.3067C35.6764 25.5723 43.0977 27.6089 39.5319 21.3156C39.3904 21.071 39.2623 20.8141 39.141 20.5634C36.1819 14.3863 42.2821 9.37131 42.2821 9.37131H42.2889Z" fill="#FFBB00" stroke="#202124" stroke-width="1.5" stroke-linejoin="round"/>
</svg>
