<svg width="55" height="83" viewBox="0 0 55 83" fill="none" xmlns="http://www.w3.org/2000/svg">
<path d="M36.7411 11.5573C37.3164 10.9738 37.8999 10.4069 38.4835 9.84001C38.6836 9.63994 40.0424 8.67291 40.0424 8.39781C40.0424 8.39781 38.0166 14.4584 38.7336 17.1427C42.66 31.8899 56.4319 49.955 49.3876 66.6779C43.0685 81.6835 18.6344 89.2364 4.57913 72.9052C-8.27568 57.9497 12.5821 31.123 14.7079 23.4451L16.5753 21.5777C16.5753 21.5777 19.9682 33.0153 18.2343 36.7417C15.6583 42.2771 21.5938 41.7019 16.8754 28.3553C11.7235 13.7998 30.9556 4.37964 30.9556 4.37964C30.9556 4.37964 27.4377 8.47283 28.0379 21.0942C28.6381 33.7239 37.8165 36.5 33.4066 27.9218C33.2315 27.5883 33.0731 27.2382 32.9231 26.8964C31.7893 24.2871 31.2057 21.3526 32.0477 18.5683C32.9064 15.7589 34.7321 13.5914 36.7328 11.5657L36.7411 11.5573Z" fill="black" stroke="black" stroke-width="0.688103" stroke-linejoin="round"/>
<path d="M40.0425 8.39801C36.6413 24.6791 61.634 42.0522 52.6223 63.4436C46.3032 78.4492 21.8691 86.002 7.81384 69.6709C-5.04097 54.7153 16.1169 30.2062 16.5754 21.5696C16.5754 21.5696 18.968 27.03 15.8668 33.6658C13.2909 39.2012 24.8285 38.4592 20.1018 25.1126C14.9499 10.5572 34.1821 1.13696 34.1821 1.13696C34.1821 1.13696 30.6641 5.23016 31.2643 17.8515C31.8645 30.4813 41.0429 33.2573 36.6329 24.6791C36.4579 24.3456 36.2995 23.9955 36.1494 23.6537C32.4897 15.2339 40.0342 8.39801 40.0342 8.39801H40.0425Z" fill="#FFBB00" stroke="black" stroke-width="0.688103" stroke-linejoin="round"/>
</svg>
