<svg width="72" height="70" viewBox="0 0 72 70" fill="none" xmlns="http://www.w3.org/2000/svg">
<path d="M27.3926 69.0403L25.7598 58.762C24.7264 58.3834 23.6379 57.8628 22.4941 57.2081C21.3503 56.5533 20.3485 55.875 19.4729 55.165L9.84931 59.5666L1.33008 45.5178L11.0799 38.166C10.9694 37.6769 10.9063 38.6945 10.8748 38.0713C10.8432 37.4482 10.8353 36.8881 10.8353 36.399C10.8353 35.91 10.8511 35.3499 10.8748 34.7267C10.8984 34.1036 10.9694 33.5435 11.0799 33.0544L2.26877 26.6098L9.8572 13.2314L13.0125 10.0762C13.0125 10.0762 21.3582 16.2526 22.502 15.5979C23.6457 14.9432 24.7343 14.4541 25.7677 14.1307L27.4005 3.76562L30.0825 0.610352L44.0367 14.0439C45.07 14.4226 46.1744 14.9274 47.3418 15.5506C48.5093 16.1737 49.5032 16.8679 50.3236 17.633L59.9471 13.2314L70.6908 24.1014L58.7245 32.8967C58.8349 33.441 58.898 34.0247 58.9296 34.6479C58.9611 35.271 58.969 35.8547 58.969 36.399C58.969 36.9433 58.9532 37.5113 58.9296 38.1108C58.9059 38.7103 58.8349 39.2782 58.7245 39.8225L68.3244 46.9771L60.9332 60.2056L50.3236 55.1571C49.4559 55.8671 48.462 56.5612 47.3418 57.2396C46.2217 57.918 45.5591 65.8772 45.5591 65.8772L42.4038 69.0324H27.3926V69.0403Z" fill="black" stroke="black" stroke-width="0.688103" stroke-linejoin="round"/>
<path d="M30.5478 65.8851L28.9149 55.6068C27.8816 55.2282 26.793 54.7076 25.6492 54.0529C24.5054 53.3981 23.5036 52.7197 22.628 52.0098L13.0044 56.4114L5.41602 43.0331L14.2271 36.5884C14.1167 36.0994 14.0536 35.5393 14.022 34.9161C13.9905 34.293 13.9826 33.7329 13.9826 33.2438C13.9826 32.7548 13.9984 32.1947 14.022 31.5715C14.0457 30.9484 14.1167 30.3883 14.2271 29.8992L5.41602 23.4546L13.0044 10.0762L22.628 14.4778C23.4957 13.7679 24.5054 13.0895 25.6492 12.4348C26.793 11.7801 27.8816 11.291 28.9149 10.9676L30.5478 0.602539H45.559L47.1918 10.8808C48.2252 11.2595 49.3295 11.7643 50.497 12.3875C51.6644 13.0106 52.6583 13.7048 53.4787 14.47L63.1023 10.0684L70.6907 23.4467L61.8796 29.7257C61.99 30.27 62.0532 30.8537 62.0847 31.4769C62.1163 32.1 62.1241 32.6838 62.1241 33.2281C62.1241 33.7723 62.1084 34.3403 62.0847 34.9398C62.061 35.5393 61.99 36.1072 61.8796 36.6515L70.6907 43.0173L63.1023 56.3956L53.4787 51.994C52.611 52.704 51.6171 53.3981 50.497 54.0765C49.3768 54.7549 48.2804 55.2597 47.1918 55.5832L45.559 65.8615H30.5478V65.8851Z" fill="#38A852" stroke="black" stroke-width="0.688103" stroke-linejoin="round"/>
</svg>
