<svg width="59" height="81" viewBox="0 0 59 81" fill="none" xmlns="http://www.w3.org/2000/svg">
<path d="M50.4342 46.0361C52.6889 49.4785 53.9601 53.459 53.9601 57.69C53.9601 70.7913 42.9743 79.8843 27.8966 79.8843C16.4005 79.8843 3.81883 72.313 1.01671 60.7055C-1.43283 50.5548 3.41984 41.8144 8.52304 33.705C11.4551 29.0564 26.6533 4.22704 26.6533 4.22704L31.2926 0.515625L50.3414 45.8877L50.4249 46.0361H50.4342Z" fill="black" stroke="black" stroke-width="0.688103" stroke-linejoin="round"/>
<path d="M55.074 42.3247C57.3286 45.7671 58.5998 49.7476 58.5998 53.9786C58.5998 67.0799 46.38 77.7131 31.3023 77.7131C16.2247 77.7131 4.00488 67.0799 4.00488 53.9786C4.00488 49.7383 5.2853 45.7671 7.52143 42.3247L7.56784 42.2412L31.3023 0.515625L54.9904 42.1763L55.074 42.3247Z" fill="#428EFF" stroke="black" stroke-width="0.688103" stroke-linejoin="round"/>
</svg>
