<svg width="68" height="67" viewBox="0 0 68 67" fill="none" xmlns="http://www.w3.org/2000/svg">
<path d="M27.8438 61.4317L26.4485 52.6487C25.5655 52.3251 24.6353 51.8803 23.6579 51.3208C22.6805 50.7613 21.8245 50.1816 21.0762 49.575L12.8527 53.3362L6.375 41.9109L13.9043 36.4038C13.8099 35.9859 13.756 35.5073 13.729 34.9748C13.702 34.4423 13.6953 33.9637 13.6953 33.5458C13.6953 33.1279 13.7088 32.6493 13.729 32.1168C13.7492 31.5843 13.8099 31.1057 13.9043 30.6878L6.375 25.174L12.8595 13.7419L21.083 17.5032C21.8245 16.8965 22.6873 16.3169 23.6646 15.7574C24.642 15.1979 25.5722 14.78 26.4552 14.5036L27.8506 5.64648H40.6779L42.0732 14.4295C42.9562 14.753 43.8999 15.1844 44.8975 15.7169C45.8951 16.2494 46.7445 16.8426 47.4455 17.4965L55.669 13.7352L62.1535 25.1673L54.6242 30.5328C54.7186 30.9979 54.7725 31.4967 54.7995 32.0292C54.8264 32.5617 54.8332 33.0605 54.8332 33.5256C54.8332 33.9907 54.8197 34.476 54.7995 34.9883C54.7792 35.5006 54.7186 35.9859 54.6242 36.451L62.1535 41.8907L55.669 53.3227L47.4455 49.5615C46.704 50.1681 45.8547 50.7613 44.8975 51.341C43.9404 51.9207 43.0034 52.3521 42.0732 52.6285L40.6779 61.4115H27.8506L27.8438 61.4317Z" fill="#38A852" stroke="#202124" stroke-width="1.5" stroke-linejoin="round"/>
</svg>
