<svg width="481" height="318" viewBox="0 0 481 318" fill="none" xmlns="http://www.w3.org/2000/svg">
<g clip-path="url(#clip0_1428_527889)">
<path d="M126.21 49.87L71.4 13L85.2 0L126.21 49.87Z" fill="#E8EAED"/>
<path d="M402.91 258.38L436.92 311.51L446.04 307.82L402.91 258.38Z" fill="#E8EAED"/>
<path d="M94.07 268.45L64.76 308.96L75.42 315.17L94.07 268.45Z" fill="#E8EAED"/>
<path d="M385.59 25.58L357.26 58.32L408.85 25.58H385.59Z" fill="#E8EAED"/>
<path d="M133.43 58.11L59.62 46.76L75.46 122.48L0 139.02L50.39 184.36L9.94 268.9L100.07 258.25L125.64 317.14L155.78 252.58L232.08 299.42L268.27 257.54L292.4 280.25L307.3 253.99L384.83 317.14L400.99 239.8L480.47 249.03L429.14 195.68L474.98 128.73L410.21 131.92L419.44 46.76L347.76 65.92L342.08 22.63L281.05 56.7L259.04 22.63L221.43 61.66L162.52 14.11L133.43 58.11Z" fill="#E8EAED"/>
<path d="M227.6 204.67L246.52 104.53L292.74 100.64L328.15 196.2L295.15 198.98L290.36 184.63L262.06 187.01L259.88 201.95L227.59 204.67H227.6ZM265.55 163.8L282.9 162.34L271.95 129.32L270.67 129.43L265.55 163.81V163.8Z" fill="white"/>
<path d="M265.55 164.71C265.55 164.71 265.6 164.71 265.63 164.71L282.98 163.25C283.26 163.23 283.51 163.08 283.66 162.85C283.81 162.62 283.85 162.33 283.76 162.06L272.81 129.04C272.68 128.64 272.29 128.39 271.87 128.42L270.59 128.53C270.17 128.57 269.83 128.88 269.77 129.3L264.65 163.68C264.61 163.95 264.7 164.23 264.89 164.43C265.06 164.61 265.3 164.72 265.55 164.72V164.71ZM268.64 149.26L272.95 162.27L266.62 162.8L268.64 149.26Z" fill="#202124"/>
<path d="M329.01 195.88L293.6 100.32C293.46 99.9399 293.07 99.6999 292.67 99.7299L246.45 103.62C246.23 103.64 246.04 103.74 245.89 103.89L245.81 103.87L235.95 114.58L217.03 214.72L249.32 212L260.55 202.66L260.5 202.63C260.66 202.49 260.77 202.3 260.8 202.08L261.66 196.21L279.81 194.68L284.6 209.03L317.6 206.25L328.64 196.97C328.64 196.97 328.66 196.95 328.68 196.94L328.8 196.84C328.85 196.78 328.91 196.74 328.95 196.68C329.1 196.44 329.13 196.14 329.03 195.88H329.01ZM259.1 201.1L228.72 203.66L247.29 105.37L292.14 101.59L326.9 195.38L295.81 198L291.25 184.33C291.12 183.93 290.73 183.68 290.31 183.71L262.01 186.1C261.59 186.14 261.25 186.46 261.19 186.87L259.12 201.09L259.1 201.1Z" fill="#202124"/>
<path d="M178.1 176.02L171.52 176.59L174.26 209.16L140.98 211.96L132.73 114.11L184.22 109.77C190.76 109.22 196.1 109.44 200.25 110.42C204.39 111.41 207.62 113.17 209.93 115.69C212.24 118.22 213.93 121.51 214.99 125.58C216.05 129.65 216.81 134.43 217.27 139.93C217.65 144.39 217.73 148.46 217.51 152.16C217.29 155.85 216.5 159.15 215.12 162.03C213.74 164.92 211.51 167.4 208.44 169.47L224.89 204.9L190.76 207.78L178.1 176.03V176.02ZM169.66 154.55L175.63 154.05C177.62 153.88 179.23 153.68 180.45 153.43C181.67 153.18 182.59 152.73 183.2 152.05C183.81 151.38 184.15 150.35 184.23 148.96C184.3 147.57 184.23 145.69 184.04 143.32C183.85 141.04 183.65 139.25 183.44 137.93C183.23 136.61 182.82 135.64 182.19 135.03C181.57 134.42 180.6 134.04 179.3 133.91C178 133.78 176.16 133.82 173.79 134.02L167.96 134.51L169.65 154.56L169.66 154.55Z" fill="white"/>
<path d="M45.7 220L37.45 122.15L73.72 119.09C82.82 118.32 90.2799 118.17 96.0999 118.64C101.92 119.11 106.53 120.29 109.94 122.2C113.35 124.11 115.92 126.88 117.66 130.5C119.4 134.13 120.66 138.7 121.47 144.22C122.27 149.74 123 156.39 123.65 164.16C124.31 171.94 124.7 178.61 124.84 184.18C124.97 189.76 124.49 194.48 123.38 198.34C122.27 202.21 120.2 205.36 117.16 207.82C114.12 210.27 109.77 212.22 104.12 213.65C98.4599 215.08 91.08 216.18 81.98 216.95L45.7099 220.01L45.7 220ZM76.98 193.44L80.3899 193.15C82.7599 192.95 84.69 192.67 86.19 192.3C87.69 191.94 88.83 191.31 89.61 190.44C90.4 189.56 90.8799 188.21 91.0599 186.38C91.2399 184.55 91.25 182.09 91.08 179C90.91 175.91 90.63 171.95 90.22 167.11C89.8 162.18 89.4199 158.15 89.0599 155.03C88.6999 151.91 88.28 149.46 87.8 147.69C87.32 145.92 86.61 144.64 85.69 143.86C84.77 143.08 83.5299 142.66 82 142.6C80.47 142.54 78.5099 142.6 76.1399 142.81L72.73 143.1L76.97 193.45L76.98 193.44Z" fill="white"/>
<path d="M339.82 195.22L313.51 98.89L346.51 96.11L359.94 156.86L361.5 156.73L366.85 94.4L400.98 91.52L416.97 152.05L418.53 151.92L420.46 89.88L453.6 87.09L443.78 186.46L401.82 190L388.42 141.43L386.86 141.56L381.77 191.69L339.81 195.23L339.82 195.22Z" fill="white"/>
<path d="M125.73 184.16C125.59 178.58 125.19 171.83 124.54 164.08C123.89 156.33 123.15 149.6 122.35 144.08C121.54 138.49 120.23 133.79 118.46 130.1C116.65 126.32 113.93 123.4 110.37 121.4C106.86 119.44 102.08 118.2 96.16 117.73C90.31 117.27 82.73 117.42 73.63 118.18L37.36 121.24C37.12 121.26 36.9 121.37 36.74 121.56C36.67 121.64 36.62 121.74 36.59 121.84L26.86 132.21L35.11 230.06L71.38 227C80.48 226.23 87.86 225.13 93.52 223.7C99.18 222.27 103.5 220.3 106.56 217.87C110.78 214.54 116.21 211.04 118.31 207.99C121.15 205.5 123.15 202.35 124.23 198.59C125.35 194.66 125.86 189.8 125.72 184.16H125.73ZM122.49 198.09C121.44 201.75 119.45 204.79 116.57 207.11C113.65 209.47 109.37 211.37 103.87 212.76C98.3 214.17 90.9 215.27 81.88 216.03L46.52 219.01L38.43 122.97L73.79 119.99C82.79 119.23 90.27 119.08 96.02 119.54C101.68 119.99 106.21 121.15 109.48 122.99C112.71 124.8 115.18 127.46 116.82 130.89C118.51 134.41 119.76 138.94 120.55 144.34C121.34 149.82 122.08 156.51 122.73 164.23C123.38 171.94 123.78 178.66 123.91 184.2C124.04 189.66 123.56 194.33 122.49 198.09Z" fill="#202124"/>
<path d="M91.13 167.04C90.72 162.17 90.33 158.1 89.97 154.94C89.61 151.79 89.17 149.27 88.68 147.46C88.15 145.51 87.34 144.07 86.28 143.17C85.2 142.26 83.78 141.76 82.04 141.69C80.47 141.63 78.46 141.69 76.07 141.9L72.66 142.19C72.16 142.23 71.79 142.67 71.83 143.17L76.07 193.52C76.11 193.99 76.51 194.35 76.97 194.35C77 194.35 77.02 194.35 77.05 194.35L80.46 194.06C82.87 193.86 84.87 193.57 86.4 193.19C88.07 192.78 89.38 192.06 90.28 191.05C91.21 190.02 91.75 188.52 91.96 186.47C92.14 184.61 92.15 182.08 91.99 178.95C91.82 175.8 91.53 171.79 91.13 167.03V167.04ZM80.31 192.25L77.8 192.46L74.26 150.46C74.8 150.46 75.32 150.46 75.79 150.47C77.32 150.53 78.55 150.95 79.48 151.73C80.41 152.51 81.11 153.79 81.59 155.56C82.07 157.33 82.49 159.78 82.85 162.9C83.21 166.02 83.6 170.05 84.01 174.98C84.42 179.82 84.7 183.78 84.87 186.87C84.97 188.68 85 190.26 84.98 191.63C83.69 191.88 82.13 192.09 80.31 192.24V192.25Z" fill="#202124"/>
<path d="M224.69 204.46L224.9 204.9L190.77 207.78L178.1 176.02L171.52 176.6L173.6 201.17L180.19 217.83L214.32 214.96L225.69 205.38L224.69 204.46Z" fill="#202124"/>
<path d="M184.35 137.78C184.11 136.25 183.61 135.13 182.84 134.37C182.07 133.61 180.91 133.15 179.41 133C178.05 132.87 176.14 132.9 173.74 133.1L167.91 133.59C167.41 133.63 167.04 134.07 167.08 134.57L168.77 154.62C168.81 155.09 169.21 155.45 169.67 155.45C169.7 155.45 169.72 155.45 169.75 155.45L175.72 154.95C177.73 154.78 179.39 154.57 180.64 154.31C182.05 154.02 183.14 153.47 183.88 152.65C184.63 151.82 185.06 150.59 185.14 148.99C185.22 147.57 185.15 145.63 184.95 143.22C184.76 140.96 184.56 139.12 184.35 137.76V137.78ZM175.57 153.14L170.5 153.57L169.4 140.48C170.49 140.45 171.42 140.46 172.16 140.54C173.46 140.67 174.42 141.04 175.05 141.66C175.67 142.28 176.09 143.24 176.3 144.56C176.51 145.88 176.71 147.68 176.9 149.95C177 151.08 177.06 152.09 177.09 153C176.61 153.05 176.11 153.1 175.58 153.14H175.57Z" fill="#202124"/>
<path d="M225.72 204.52L209.59 169.79C212.46 167.72 214.59 165.25 215.94 162.44C217.36 159.47 218.2 156.03 218.42 152.23C218.63 148.5 218.55 144.35 218.17 139.88C217.71 134.36 216.93 129.48 215.86 125.38C214.77 121.19 213 117.74 210.59 115.11C208.16 112.46 204.75 110.6 200.45 109.57C196.23 108.56 190.74 108.34 184.14 108.89L132.65 113.23C132.41 113.25 132.19 113.36 132.03 113.55C131.95 113.64 131.9 113.74 131.86 113.85L122.14 124.19L130.39 222.04L163.67 219.24L174.5 210.04C174.67 209.99 174.82 209.91 174.94 209.77C175.1 209.59 175.17 209.35 175.15 209.11L172.48 177.44L177.48 177L189.89 208.13C190.04 208.5 190.42 208.73 190.81 208.7L224.94 205.82C225.24 205.8 225.5 205.63 225.65 205.37C225.8 205.11 225.81 204.8 225.69 204.53L225.72 204.52ZM191.36 206.82L178.95 175.69C178.8 175.32 178.42 175.09 178.03 175.12L171.45 175.69C170.95 175.73 170.58 176.17 170.62 176.67L173.29 208.33L141.82 210.98L133.73 114.94L184.31 110.68C190.72 110.14 196.02 110.35 200.05 111.31C203.99 112.25 207.1 113.93 209.27 116.31C211.47 118.72 213.1 121.91 214.12 125.81C215.16 129.81 215.92 134.58 216.38 140C216.75 144.39 216.83 148.46 216.62 152.1C216.41 155.66 215.64 158.87 214.32 161.63C213.01 164.36 210.87 166.74 207.95 168.71C207.58 168.96 207.45 169.44 207.63 169.85L223.53 204.1L191.36 206.81V206.82Z" fill="#202124"/>
<path d="M454.5 87.1699C454.53 86.8999 454.43 86.6399 454.24 86.4399C454.05 86.2499 453.79 86.1599 453.52 86.1699L420.38 88.9599C420.11 88.9799 419.89 89.1299 419.74 89.3299H419.72L409.89 99.9199L409.28 119.38L401.86 91.2699C401.75 90.8399 401.34 90.5699 400.91 90.5999L366.78 93.4799C366.52 93.4999 366.3 93.6399 366.15 93.8299L366.1 93.8099L356.28 104.43L354.33 127.2L347.41 95.8899C347.31 95.4499 346.89 95.1399 346.45 95.1799L313.45 97.9599C313.18 97.9799 312.94 98.1199 312.78 98.3399C312.78 98.3499 312.78 98.3699 312.76 98.3799L302.94 108.91L329.25 205.24L371.21 201.7L382.15 192.47C382.44 192.34 382.66 192.07 382.69 191.73L384.38 175.06L391.26 200L433.22 196.46L444.59 186.99V186.84C444.65 186.73 444.69 186.62 444.7 186.49L454.52 87.1199L454.5 87.1699ZM380.94 190.84L340.49 194.25L314.67 99.6999L345.79 97.0799L359.04 157.05C359.14 157.49 359.57 157.8 360 157.76L361.56 157.63C362 157.59 362.35 157.24 362.39 156.8L367.67 95.2299L400.28 92.4799L416.07 152.27C416.18 152.7 416.6 152.98 417.02 152.94L418.58 152.81C419.04 152.77 419.4 152.39 419.41 151.93L421.32 90.6999L452.57 88.0699L442.93 185.61L402.48 189.02L389.28 141.17C389.16 140.75 388.76 140.47 388.33 140.51L386.77 140.64C386.33 140.68 385.99 141.02 385.94 141.45L380.93 190.83L380.94 190.84Z" fill="#202124"/>
</g>
<defs>
<clipPath id="clip0_1428_527889">
<rect width="480.47" height="317.14" fill="white"/>
</clipPath>
</defs>
</svg>
