<svg width="481" height="318" viewBox="0 0 481 318" fill="none" xmlns="http://www.w3.org/2000/svg">
<g clip-path="url(#clip0_1428_527913)">
<path d="M126.21 49.87L71.4 13L85.2 0L126.21 49.87Z" fill="#FF5145"/>
<path d="M402.91 258.38L436.92 311.51L446.04 307.82L402.91 258.38Z" fill="#FF5145"/>
<path d="M94.07 268.45L64.76 308.96L75.42 315.17L94.07 268.45Z" fill="#FF5145"/>
<path d="M385.59 25.58L357.26 58.32L408.85 25.58H385.59Z" fill="#FF5145"/>
<path d="M133.43 58.11L59.62 46.76L75.46 122.48L0 139.02L50.39 184.36L9.94 268.9L100.07 258.25L125.64 317.14L155.78 252.58L232.08 299.42L268.27 257.54L292.4 280.25L307.3 253.99L384.83 317.14L400.99 239.8L480.47 249.03L429.14 195.68L474.98 128.73L410.21 131.92L419.44 46.76L347.76 65.92L342.08 22.63L281.05 56.7L259.04 22.63L221.43 61.66L162.52 14.11L133.43 58.11Z" fill="#FF5145"/>
<path d="M300.61 213.18C295.72 213.59 290.48 213.89 284.89 214.08C279.29 214.26 273.86 214.35 268.6 214.34C263.33 214.33 258.74 214.2 254.83 213.95L252.54 186.84C256.77 186.83 260.92 186.79 264.98 186.74C269.04 186.68 272.86 186.56 276.46 186.37C280.05 186.18 283.09 185.98 285.6 185.77C290.15 185.39 293.55 185.01 295.81 184.65C298.07 184.29 299.57 183.79 300.32 183.15C300.85 182.65 301.2 182.1 301.38 181.52C301.56 180.93 301.64 180.24 301.63 179.44C301.62 178.64 301.57 177.73 301.49 176.7C301.35 174.99 301.07 173.7 300.65 172.82C300.23 171.94 299.49 171.29 298.42 170.86C297.35 170.43 295.78 170.14 293.71 169.97C291.63 169.8 288.87 169.63 285.42 169.47L265.25 168.59C261.69 168.43 258.69 167.51 256.26 165.83C253.83 164.15 251.82 161.8 250.26 158.78C248.69 155.76 247.46 152.09 246.58 147.75C245.7 143.42 245.03 138.58 244.58 133.24C243.93 125.51 244.6 119.19 246.59 114.27C248.58 109.35 251.6 105.46 255.65 102.6C259.7 99.74 264.47 97.62 269.97 96.24C275.46 94.86 281.45 93.9 287.93 93.35C292.7 92.95 297.64 92.7 302.72 92.62C307.81 92.53 312.62 92.56 317.15 92.69C321.68 92.82 325.46 93.11 328.47 93.54L330.73 120.31C327.86 120.21 324.45 120.18 320.51 120.23C316.56 120.28 312.54 120.39 308.43 120.56C304.32 120.73 300.45 120.97 296.81 121.28C294.08 121.51 291.87 121.76 290.17 122.01C288.48 122.27 287.2 122.72 286.33 123.36C285.47 124.01 284.87 124.77 284.55 125.66C284.22 126.55 284.11 127.62 284.22 128.86C284.38 130.79 284.68 132.26 285.1 133.25C285.53 134.24 286.44 134.88 287.84 135.17C289.24 135.45 291.43 135.7 294.43 135.9L312.52 136.61C315.5 136.7 318.34 137.04 321.02 137.61C323.7 138.19 326.25 139.2 328.66 140.66C331.07 142.12 333.27 144.42 335.25 147.57C336.16 148.87 336.96 150.58 337.66 152.69C338.35 154.81 338.99 157.3 339.58 160.17C340.16 163.04 340.62 166.35 340.93 170.1C341.53 177.26 341.33 183.29 340.31 188.18C339.29 193.08 337.56 197.06 335.13 200.12C332.7 203.19 329.72 205.62 326.21 207.4C322.7 209.19 318.77 210.49 314.43 211.31C310.09 212.13 305.48 212.75 300.59 213.16L300.61 213.18Z" fill="white"/>
<path d="M45.23 233.33L35.34 116.01L75.24 112.65L82.6 199.96L121.82 196.66L124.35 226.67L45.23 233.34V233.33Z" fill="white"/>
<path d="M186.71 222.78C176.36 223.65 167.87 223.74 161.23 223.04C154.59 222.34 149.33 220.78 145.47 218.36C141.6 215.94 138.65 212.47 136.61 207.94C134.57 203.42 133.09 197.79 132.18 191.05C131.27 184.32 130.43 176.34 129.65 167.14C128.87 157.93 128.37 149.93 128.14 143.14C127.91 136.35 128.42 130.55 129.68 125.75C130.93 120.95 133.27 117.03 136.68 114C140.09 110.97 145.01 108.55 151.44 106.75C157.87 104.95 166.26 103.61 176.6 102.74C186.94 101.87 195.44 101.78 202.08 102.48C208.72 103.18 214.01 104.74 217.93 107.15C221.85 109.57 224.81 113.04 226.79 117.57C228.77 122.1 230.25 127.73 231.22 134.46C232.19 141.19 233.06 149.16 233.84 158.37C234.62 167.58 235.09 175.58 235.26 182.38C235.43 189.18 234.92 194.98 233.72 199.77C232.52 204.57 230.19 208.48 226.72 211.52C223.25 214.56 218.31 216.98 211.88 218.78C205.45 220.58 197.06 221.92 186.72 222.79L186.71 222.78ZM184.31 194.3C186.7 194.1 188.65 193.82 190.17 193.46C191.69 193.1 192.83 192.38 193.59 191.28C194.36 190.19 194.82 188.52 194.97 186.27C195.13 184.02 195.09 180.91 194.87 176.92C194.65 172.93 194.28 167.87 193.76 161.73C193.24 155.59 192.76 150.54 192.31 146.57C191.86 142.6 191.37 139.52 190.84 137.33C190.31 135.14 189.58 133.57 188.64 132.62C187.7 131.67 186.46 131.15 184.9 131.05C183.35 130.95 181.38 131 178.99 131.2C176.6 131.4 174.65 131.68 173.14 132.04C171.62 132.4 170.51 133.12 169.8 134.21C169.09 135.3 168.63 136.97 168.42 139.22C168.21 141.47 168.24 144.59 168.52 148.57C168.8 152.56 169.2 157.61 169.71 163.75C170.23 169.89 170.68 174.95 171.07 178.92C171.46 182.9 171.95 185.97 172.54 188.16C173.12 190.34 173.86 191.91 174.74 192.87C175.62 193.83 176.84 194.35 178.39 194.45C179.94 194.55 181.91 194.5 184.3 194.3H184.31Z" fill="white"/>
<path d="M404.46 204.43C399.57 204.84 394.33 205.14 388.74 205.33C383.14 205.51 377.71 205.6 372.45 205.59C367.18 205.58 362.59 205.45 358.68 205.2L356.4 178.09C360.63 178.08 364.78 178.04 368.84 177.99C372.9 177.93 376.72 177.81 380.32 177.62C383.91 177.43 386.96 177.23 389.46 177.02C394.01 176.64 397.41 176.26 399.67 175.9C401.93 175.54 403.43 175.04 404.18 174.4C404.71 173.9 405.06 173.35 405.24 172.77C405.42 172.18 405.5 171.49 405.49 170.69C405.48 169.89 405.43 168.98 405.35 167.95C405.21 166.24 404.93 164.95 404.51 164.07C404.09 163.19 403.35 162.54 402.28 162.11C401.21 161.68 399.64 161.39 397.57 161.22C395.5 161.05 392.73 160.88 389.28 160.72L369.11 159.84C365.55 159.68 362.55 158.76 360.12 157.08C357.69 155.4 355.68 153.05 354.12 150.03C352.55 147.01 351.32 143.34 350.44 139C349.56 134.67 348.9 129.83 348.44 124.49C347.79 116.76 348.46 110.44 350.45 105.52C352.44 100.6 355.46 96.71 359.51 93.85C363.56 90.99 368.33 88.87 373.83 87.49C379.32 86.11 385.31 85.15 391.79 84.6C396.56 84.2 401.49 83.95 406.58 83.87C411.67 83.78 416.48 83.81 421.01 83.94C425.54 84.07 429.32 84.36 432.33 84.79L434.59 111.56C431.72 111.46 428.31 111.43 424.36 111.48C420.41 111.53 416.39 111.64 412.28 111.81C408.17 111.98 404.3 112.22 400.66 112.53C397.93 112.76 395.72 113.01 394.02 113.26C392.33 113.52 391.05 113.97 390.18 114.61C389.32 115.26 388.72 116.02 388.4 116.91C388.07 117.8 387.96 118.87 388.07 120.11C388.23 122.04 388.53 123.51 388.96 124.5C389.39 125.49 390.3 126.13 391.7 126.42C393.1 126.7 395.29 126.95 398.29 127.15L416.38 127.86C419.36 127.95 422.2 128.29 424.88 128.86C427.56 129.44 430.11 130.45 432.52 131.91C434.93 133.37 437.13 135.67 439.11 138.82C440.02 140.12 440.82 141.83 441.52 143.94C442.21 146.06 442.85 148.55 443.44 151.42C444.02 154.29 444.48 157.6 444.79 161.35C445.39 168.51 445.19 174.54 444.17 179.43C443.15 184.32 441.42 188.31 438.99 191.37C436.56 194.44 433.58 196.87 430.07 198.65C426.56 200.44 422.63 201.74 418.29 202.56C413.95 203.38 409.34 204 404.45 204.41L404.46 204.43Z" fill="white"/>
<path d="M342.01 170.02C341.69 166.24 341.23 162.86 340.64 159.97C340.05 157.07 339.39 154.51 338.69 152.37C337.97 150.17 337.11 148.35 336.17 147.01C334.11 143.73 331.77 141.29 329.23 139.75C326.72 138.24 324.04 137.17 321.26 136.57C318.52 135.98 315.6 135.64 312.58 135.55L294.52 134.84C291.59 134.64 289.42 134.4 288.07 134.13C286.52 133.82 286.2 133.08 286.1 132.84C286.09 132.81 286.08 132.77 286.07 132.74C289.35 132.48 292.8 132.27 296.44 132.12C300.55 131.94 304.57 131.84 308.52 131.79C312.47 131.74 315.87 131.77 318.74 131.87L331.36 121.15C331.41 121.11 331.47 121.09 331.51 121.05C331.72 120.83 331.82 120.53 331.8 120.23L329.54 93.46C329.5 92.97 329.12 92.57 328.63 92.5C325.59 92.06 321.74 91.77 317.19 91.64C312.63 91.51 307.76 91.48 302.71 91.57C297.62 91.65 292.62 91.9 287.84 92.3C281.34 92.85 275.24 93.83 269.71 95.22C264.11 96.63 259.18 98.82 255.04 101.74C254.3 102.26 253.61 102.83 252.93 103.42C252.41 103.81 251.93 104.25 251.46 104.66C248.48 107.28 246.04 110.46 243.5 113.48C240.21 117.41 236.55 120.97 234.58 125.83C232.59 130.75 231.92 137.07 232.57 144.8C233.02 150.15 233.69 154.98 234.57 159.31C235.45 163.64 236.68 167.32 238.25 170.34C239.82 173.36 241.82 175.71 244.25 177.39C246.68 179.07 249.68 180 253.24 180.15L273.41 181.03C276.86 181.2 279.62 181.36 281.7 181.53C283.78 181.7 285.35 182 286.41 182.42C287.48 182.85 288.22 183.5 288.64 184.38C288.64 184.39 288.65 184.41 288.66 184.43C287.68 184.52 286.62 184.62 285.5 184.71C283.01 184.92 279.94 185.12 276.39 185.31C272.85 185.5 269.01 185.62 264.96 185.67C261.09 185.73 257.03 185.76 252.53 185.77C252.23 185.77 251.95 185.9 251.75 186.12C251.72 186.15 251.71 186.19 251.69 186.22L240.53 198.4L242.82 225.51C246.73 225.75 251.32 225.88 256.59 225.9C261.86 225.91 267.29 225.83 272.88 225.64C278.47 225.45 283.71 225.16 288.6 224.74C293.49 224.33 298.1 223.71 302.44 222.89C306.78 222.07 310.7 220.76 314.22 218.98C317.73 217.2 321.13 214.53 324.07 211.94C327.15 209.24 329.33 207.68 333.37 203.64C334.29 202.76 335.16 201.82 335.97 200.8C338.49 197.62 340.3 193.45 341.35 188.41C342.38 183.43 342.6 177.25 341.99 170.02H342.01ZM339.29 187.98C338.31 192.69 336.64 196.56 334.32 199.48C331.99 202.42 329.11 204.77 325.75 206.47C322.35 208.2 318.48 209.48 314.26 210.29C309.96 211.11 305.34 211.72 300.53 212.13C295.71 212.54 290.44 212.84 284.86 213.02C279.31 213.2 273.83 213.29 268.61 213.28C263.8 213.27 259.51 213.16 255.82 212.95L253.71 187.9C257.76 187.88 261.47 187.85 265.01 187.8C269.09 187.74 272.96 187.62 276.53 187.43C280.1 187.24 283.19 187.04 285.7 186.83C290.26 186.45 293.72 186.07 295.99 185.7C298.51 185.3 300.11 184.74 301.06 183.93C301.72 183.31 302.18 182.6 302.41 181.83C302.62 181.14 302.72 180.35 302.71 179.42C302.7 178.58 302.65 177.63 302.56 176.61C302.4 174.76 302.1 173.37 301.62 172.37C301.09 171.24 300.15 170.4 298.83 169.88C297.66 169.41 296.01 169.1 293.81 168.92C291.75 168.75 288.95 168.58 285.48 168.41L265.31 167.53C261.97 167.38 259.13 166.52 256.88 164.96C254.6 163.38 252.69 161.14 251.21 158.29C249.69 155.38 248.49 151.76 247.63 147.54C246.76 143.27 246.1 138.43 245.65 133.15C245.02 125.63 245.67 119.41 247.58 114.66C249.48 109.96 252.41 106.19 256.27 103.46C260.19 100.69 264.89 98.61 270.23 97.26C275.65 95.9 281.63 94.94 288.02 94.4C292.75 94 297.7 93.76 302.74 93.67C307.76 93.58 312.6 93.61 317.12 93.74C321.18 93.86 324.66 94.1 327.48 94.47L329.56 119.2C326.94 119.13 323.89 119.11 320.48 119.15C316.47 119.2 312.4 119.31 308.37 119.48C304.25 119.66 300.33 119.9 296.71 120.2C294 120.43 291.75 120.68 290 120.94C288.11 121.23 286.7 121.73 285.69 122.49C284.66 123.26 283.94 124.2 283.55 125.27C283.17 126.3 283.04 127.53 283.16 128.93C283.33 131 283.65 132.54 284.13 133.65C284.7 134.98 285.88 135.84 287.63 136.19C289.08 136.48 291.34 136.74 294.39 136.94L312.49 137.65C315.39 137.74 318.18 138.07 320.8 138.63C323.35 139.18 325.81 140.16 328.12 141.55C330.38 142.91 332.48 145.13 334.39 148.16C335.24 149.37 336 151 336.66 153C337.34 155.06 337.97 157.54 338.55 160.36C339.12 163.17 339.57 166.47 339.88 170.17C340.47 177.19 340.27 183.17 339.28 187.95L339.29 187.98Z" fill="#202124"/>
<path d="M125.41 226.57L122.88 196.56C122.86 196.28 122.72 196.02 122.51 195.84C122.29 195.66 122.01 195.57 121.73 195.59L83.57 198.81L76.3 112.56C76.25 111.98 75.74 111.55 75.15 111.59L35.25 114.95C34.97 114.97 34.71 115.11 34.53 115.32C34.49 115.37 34.47 115.43 34.44 115.49H34.42L23.34 127.56L33.23 244.88L112.35 238.21L125.31 227.26L125.25 227.19C125.36 227.01 125.43 226.8 125.41 226.57ZM74.27 113.79L81.54 200.04C81.59 200.62 82.1 201.06 82.69 201.01L120.85 197.79L123.2 225.68L46.2 232.17L36.49 116.97L74.27 113.79Z" fill="#202124"/>
<path d="M194.81 161.65C194.3 155.59 193.81 150.48 193.36 146.46C192.91 142.45 192.4 139.3 191.87 137.09C191.29 134.69 190.48 132.99 189.39 131.88C188.27 130.74 186.78 130.11 184.96 129.99C183.35 129.89 181.31 129.94 178.89 130.15C176.47 130.35 174.45 130.64 172.88 131.01C171.09 131.43 169.75 132.32 168.9 133.63C168.09 134.88 167.58 136.68 167.35 139.12C167.13 141.41 167.17 144.61 167.45 148.64C167.73 152.61 168.12 157.58 168.64 163.84C169.17 170.16 169.62 175.12 170.01 179.02C170.41 183.1 170.9 186.17 171.51 188.43C172.15 190.81 172.95 192.49 173.96 193.58C175.03 194.74 176.5 195.39 178.33 195.5C178.87 195.54 179.45 195.55 180.07 195.55C181.32 195.55 182.75 195.48 184.4 195.34C186.88 195.13 188.85 194.85 190.41 194.48C192.18 194.06 193.54 193.19 194.46 191.88C195.35 190.61 195.86 188.8 196.03 186.33C196.19 184.03 196.16 180.93 195.93 176.85C195.71 172.86 195.33 167.74 194.82 161.63L194.81 161.65ZM178.46 193.4C177.18 193.32 176.22 192.91 175.52 192.16C174.76 191.34 174.1 189.91 173.57 187.9C173 185.79 172.52 182.74 172.14 178.84C171.75 174.95 171.31 169.99 170.78 163.69C170.25 157.44 169.86 152.48 169.59 148.52C169.43 146.28 169.36 144.31 169.36 142.63C170.72 142.57 171.91 142.56 172.92 142.63C174.47 142.73 175.72 143.25 176.66 144.2C177.6 145.15 178.33 146.72 178.86 148.91C179.39 151.1 179.88 154.18 180.33 158.15C180.78 162.12 181.26 167.17 181.78 173.31C182.3 179.45 182.67 184.51 182.89 188.5C182.99 190.3 183.05 191.9 183.07 193.35C181.26 193.47 179.71 193.5 178.49 193.42L178.46 193.4Z" fill="#202124"/>
<path d="M236.31 182.34C236.14 175.55 235.66 167.45 234.88 158.27C234.11 149.1 233.22 141.04 232.26 134.3C231.28 127.5 229.76 121.73 227.75 117.14C225.69 112.43 222.56 108.77 218.47 106.24C214.43 103.75 208.95 102.13 202.17 101.41C195.49 100.71 186.85 100.79 176.49 101.67C166.13 102.54 157.59 103.9 151.13 105.72C146.58 107 142.74 108.61 139.64 110.51C139.29 110.65 138.96 110.82 138.64 111.04C132.84 115.02 127.68 121.63 124.67 125.55C121.89 129.17 118.93 132.5 117.67 137.3C116.41 142.1 115.9 147.9 116.13 154.69C116.36 161.48 116.86 169.48 117.64 178.69C118.42 187.9 119.26 195.87 120.17 202.6C121.08 209.34 122.56 214.97 124.6 219.49C126.64 224.01 129.59 227.48 133.46 229.91C137.33 232.33 142.58 233.89 149.22 234.59C155.86 235.29 164.36 235.2 174.7 234.33C185.04 233.46 193.43 232.12 199.86 230.32C206.29 228.52 210.91 225.67 214.7 223.06C218.92 220.15 222.9 216.81 227.11 212.67C227.23 212.55 227.33 212.41 227.43 212.28C231.03 209.11 233.48 204.99 234.73 200.01C235.94 195.15 236.47 189.2 236.3 182.34H236.31ZM232.68 199.5C231.54 204.06 229.3 207.83 226.01 210.71C222.68 213.63 217.83 216 211.58 217.75C205.23 219.52 196.83 220.86 186.61 221.72C176.38 222.58 167.87 222.67 161.33 221.98C154.88 221.3 149.73 219.78 146.02 217.45C142.35 215.15 139.5 211.8 137.56 207.5C135.57 203.1 134.11 197.52 133.22 190.91C132.31 184.22 131.47 176.19 130.7 167.05C129.93 157.89 129.42 149.84 129.2 143.1C128.98 136.44 129.48 130.69 130.71 126.02C131.9 121.45 134.15 117.67 137.38 114.79C140.65 111.88 145.47 109.52 151.72 107.77C158.06 106 166.46 104.66 176.69 103.8C182.38 103.32 187.53 103.08 192.11 103.08C195.77 103.08 199.06 103.23 201.97 103.54C208.42 104.22 213.61 105.74 217.37 108.06C221.09 110.35 223.93 113.7 225.82 118C227.75 122.41 229.22 128 230.17 134.61C231.13 141.31 232.01 149.33 232.78 158.46C233.55 167.6 234.03 175.65 234.2 182.4C234.37 189.08 233.86 194.83 232.69 199.5H232.68Z" fill="#202124"/>
<path d="M445.85 161.27C445.53 157.49 445.07 154.11 444.48 151.22C443.89 148.32 443.23 145.77 442.53 143.62C441.81 141.42 440.95 139.6 440.01 138.26C437.95 134.98 435.61 132.54 433.06 131C430.55 129.49 427.87 128.42 425.09 127.82C422.35 127.23 419.42 126.89 416.41 126.8L398.35 126.09C395.43 125.89 393.26 125.65 391.9 125.38C390.35 125.07 390.03 124.33 389.93 124.09C389.92 124.06 389.91 124.02 389.9 123.99C393.18 123.73 396.63 123.52 400.27 123.37C404.38 123.19 408.4 123.09 412.35 123.04C416.3 122.99 419.7 123.02 422.57 123.12L435.15 112.43C435.21 112.39 435.28 112.36 435.33 112.3C435.54 112.08 435.65 111.78 435.62 111.48L433.36 84.71C433.32 84.22 432.94 83.82 432.45 83.75C429.41 83.31 425.56 83.02 421.01 82.89C416.45 82.76 411.58 82.73 406.53 82.82C401.45 82.9 396.44 83.15 391.67 83.55C385.17 84.1 379.07 85.08 373.54 86.47C367.94 87.88 363.01 90.07 358.87 92.99C358.13 93.51 357.43 94.08 356.76 94.67C356.25 95.06 355.76 95.5 355.3 95.91C352.32 98.53 349.88 101.71 347.34 104.73C344.05 108.66 340.39 112.22 338.42 117.08C336.43 122 335.76 128.32 336.41 136.05C336.86 141.4 337.53 146.23 338.41 150.56C339.29 154.89 340.52 158.57 342.09 161.59C343.66 164.61 345.66 166.96 348.09 168.64C350.52 170.32 353.52 171.25 357.08 171.4L377.25 172.28C380.7 172.45 383.46 172.61 385.54 172.78C387.62 172.95 389.19 173.25 390.25 173.67C391.32 174.1 392.06 174.75 392.48 175.63C392.48 175.64 392.49 175.66 392.5 175.68C391.52 175.77 390.46 175.87 389.34 175.96C386.83 176.17 383.77 176.37 380.23 176.56C376.69 176.75 372.85 176.87 368.8 176.92C364.93 176.98 360.87 177.01 356.37 177.02C356.07 177.02 355.79 177.15 355.59 177.37C355.56 177.4 355.56 177.44 355.53 177.47L344.37 189.65L346.66 216.76C350.57 217 355.16 217.13 360.43 217.15C365.7 217.16 371.13 217.08 376.72 216.89C382.31 216.7 387.55 216.41 392.44 215.99C397.33 215.58 401.94 214.96 406.28 214.14C410.62 213.32 414.54 212.01 418.06 210.23C421.57 208.45 424.97 205.78 427.91 203.19C430.99 200.49 433.17 198.93 437.21 194.89C438.13 194.01 439 193.07 439.8 192.06C442.32 188.88 444.13 184.71 445.18 179.67C446.22 174.69 446.43 168.51 445.82 161.28L445.85 161.27ZM443.13 179.23C442.15 183.94 440.48 187.81 438.16 190.73C435.83 193.67 432.95 196.02 429.59 197.72C426.19 199.45 422.32 200.73 418.1 201.53C413.8 202.34 409.18 202.96 404.37 203.37C399.55 203.78 394.28 204.08 388.7 204.26C383.15 204.44 377.66 204.53 372.45 204.52C367.64 204.51 363.34 204.4 359.66 204.19L357.55 179.14C361.6 179.12 365.31 179.09 368.85 179.04C372.93 178.98 376.8 178.86 380.37 178.67C383.93 178.48 387.01 178.28 389.54 178.07C394.09 177.69 397.55 177.31 399.83 176.94C402.35 176.54 403.94 175.98 404.9 175.17C405.56 174.55 406.02 173.84 406.25 173.07C406.46 172.39 406.56 171.58 406.55 170.66C406.54 169.83 406.49 168.88 406.4 167.85C406.24 166 405.94 164.61 405.46 163.61C404.93 162.48 403.99 161.64 402.67 161.12C401.5 160.65 399.85 160.34 397.65 160.16C395.58 159.99 392.78 159.82 389.32 159.65L369.15 158.77C365.81 158.62 362.97 157.76 360.72 156.2C358.44 154.62 356.53 152.38 355.05 149.53C353.53 146.62 352.33 143 351.47 138.78C350.6 134.51 349.94 129.67 349.49 124.39C348.86 116.87 349.51 110.65 351.42 105.9C353.32 101.2 356.25 97.43 360.11 94.7C364.03 91.93 368.73 89.85 374.08 88.5C379.5 87.14 385.48 86.18 391.87 85.64C396.6 85.24 401.55 85 406.59 84.91C411.61 84.82 416.45 84.85 420.97 84.98C425.03 85.1 428.51 85.34 431.33 85.71L433.41 110.44C430.8 110.37 427.76 110.35 424.33 110.39C420.34 110.44 416.27 110.55 412.22 110.72C408.12 110.89 404.2 111.14 400.56 111.44C397.84 111.67 395.59 111.92 393.85 112.18C391.96 112.47 390.55 112.97 389.54 113.73C388.51 114.5 387.79 115.44 387.4 116.51C387.02 117.53 386.89 118.77 387.01 120.17C387.18 122.24 387.5 123.78 387.98 124.89C388.55 126.22 389.73 127.07 391.48 127.43C392.93 127.72 395.19 127.98 398.24 128.18L416.34 128.89C419.24 128.98 422.03 129.31 424.65 129.87C427.2 130.42 429.66 131.4 431.97 132.79C434.23 134.15 436.33 136.36 438.24 139.4C439.09 140.61 439.85 142.24 440.51 144.24C441.19 146.31 441.82 148.78 442.4 151.6C442.97 154.41 443.42 157.71 443.73 161.41C444.32 168.43 444.12 174.41 443.13 179.19V179.23Z" fill="#202124"/>
</g>
<defs>
<clipPath id="clip0_1428_527913">
<rect width="480.47" height="317.14" fill="white"/>
</clipPath>
</defs>
</svg>
