<svg width="481" height="318" viewBox="0 0 481 318" fill="none" xmlns="http://www.w3.org/2000/svg">
<g clip-path="url(#clip0_1428_527866)">
<path d="M126.21 49.87L71.4 13L85.2 0L126.21 49.87Z" fill="#38A852"/>
<path d="M402.91 258.38L436.92 311.51L446.04 307.82L402.91 258.38Z" fill="#38A852"/>
<path d="M94.07 268.45L64.76 308.96L75.42 315.17L94.07 268.45Z" fill="#38A852"/>
<path d="M385.59 25.58L357.26 58.32L408.85 25.58H385.59Z" fill="#38A852"/>
<path d="M133.43 58.11L59.62 46.76L75.46 122.48L0 139.02L50.39 184.36L9.94 268.9L100.07 258.25L125.64 317.14L155.78 252.58L232.08 299.42L268.27 257.54L292.4 280.25L307.3 253.99L384.83 317.14L400.99 239.8L480.47 249.03L429.14 195.68L474.98 128.73L410.21 131.92L419.44 46.76L347.76 65.92L342.08 22.63L281.05 56.7L259.04 22.63L221.43 61.66L162.52 14.11L133.43 58.11Z" fill="#38A852"/>
<path d="M413.02 166.55C413.09 166.94 413.42 167.24 413.82 167.25C417.84 167.41 436.01 167.13 437.03 167.15C438 167.17 447.31 162.6 449.83 161.75C449.99 161.69 450.14 161.65 450.28 161.6C450.3 161.6 450.33 161.58 450.35 161.58C450.43 161.56 450.51 161.51 450.58 161.47C450.6 161.47 450.61 161.45 450.63 161.44C451.52 160.95 452.13 160.01 452.13 158.92L451.82 80.5501C451.82 78.9901 450.54 77.7101 448.99 77.6801C448.98 77.6801 448.94 77.6801 448.93 77.6801L411.79 77.8301C411.23 77.8301 410.69 78.0001 410.24 78.2901C410.08 78.3301 409.94 78.4201 409.83 78.5501L398.82 88.3701C398.65 88.5701 398.58 88.8301 398.62 89.0801L413.03 166.55H413.02ZM448.96 79.5601C449.5 79.5601 449.94 80.0101 449.94 80.5501L450.24 154.4L450.26 158.92C450.26 159.47 449.82 159.92 449.27 159.92L426.02 160.01C426.02 160.01 426.01 160.01 426 160.01C425.53 160.01 425.12 159.66 425.04 159.19L410.83 80.8701C410.72 80.2601 411.19 79.7001 411.81 79.7001L417.8 79.6801L448.95 79.5501C448.95 79.5501 448.96 79.5501 448.97 79.5501L448.96 79.5601Z" fill="#202124"/>
<path d="M456.31 194.65L443.16 179.61L437.76 173.37C437.67 173.27 437.57 173.19 437.47 173.1L435.89 171.29C435.58 170.93 435.02 170.92 434.7 171.27L425.5 178.07C425.5 178.07 425.42 178.17 425.38 178.23L412.04 202.93C411.74 203.48 412.16 204.14 412.78 204.11L445.5 201.86C445.68 201.86 445.86 201.78 445.99 201.66L456.24 195.77C456.57 195.48 456.6 194.98 456.31 194.65ZM425.54 194.97L435.23 174.75C435.35 174.5 435.59 174.37 435.84 174.37C436.02 174.37 436.2 174.45 436.33 174.6L452.02 192.72C452.38 193.13 452.11 193.77 451.57 193.82L426.19 195.92C426.19 195.92 426.14 195.92 426.12 195.92C425.65 195.92 425.32 195.41 425.54 194.97Z" fill="#202124"/>
<path d="M450.26 158.92L450.24 154.4L449.94 80.5501C449.94 80.0101 449.5 79.5701 448.96 79.5601C448.96 79.5601 448.95 79.5601 448.94 79.5601L417.79 79.6901L411.8 79.7101C411.18 79.7101 410.71 80.2701 410.82 80.8801L425.03 159.2C425.11 159.67 425.52 160.01 425.99 160.02C425.99 160.02 426 160.02 426.01 160.02L449.26 159.93C449.81 159.93 450.25 159.48 450.25 158.93L450.26 158.92Z" fill="#FFBB00"/>
<path d="M452.02 192.73L436.33 174.61C436.2 174.46 436.02 174.38 435.84 174.38C435.59 174.38 435.35 174.51 435.23 174.76L425.54 194.98C425.33 195.42 425.65 195.92 426.12 195.93C426.14 195.93 426.17 195.93 426.19 195.93L451.57 193.83C452.11 193.79 452.37 193.15 452.02 192.73Z" fill="#FFBB00"/>
<path d="M230.69 213.79L220.72 95.79L260.85 92.4L270.82 210.4L230.69 213.79Z" fill="white"/>
<path d="M271.86 210.32L261.89 92.3201C261.84 91.7501 261.34 91.3301 260.77 91.3701L220.64 94.7601C220.34 94.7901 220.08 94.9401 219.91 95.1601L208.52 105.27L217.78 224.8L258.39 221.65L271.44 211.24C271.44 211.24 271.48 211.21 271.5 211.19L271.52 211.17C271.52 211.17 271.59 211.11 271.62 211.07C271.8 210.86 271.88 210.59 271.86 210.31V210.32ZM259.91 93.5301L269.7 209.46L231.64 212.68L221.85 96.7501L259.91 93.5301Z" fill="#202124"/>
<path d="M67.71 228.41L36.35 113.57L75.68 110.25L91.68 182.67L93.54 182.51L99.92 108.2L140.61 104.77L159.67 176.93L161.53 176.77L163.84 102.81L203.35 99.48L191.65 217.95L141.64 222.17L125.66 164.26L123.8 164.42L117.74 224.18L67.72 228.39L67.71 228.41Z" fill="white"/>
<path d="M204.11 98.75C203.89 98.52 203.58 98.41 203.26 98.44L163.75 101.77C163.54 101.79 163.37 101.88 163.21 101.99H163.16L151.45 113.89L150.68 138.72L141.65 104.51C141.52 104.01 141.05 103.68 140.53 103.72L99.84 107.15C99.52 107.18 99.25 107.35 99.08 107.6L87.54 119.28L85.09 147.87L76.73 110.03C76.62 109.51 76.13 109.16 75.6 109.2L36.27 112.52C35.97 112.55 35.7 112.7 35.52 112.94H35.49L23.96 124.64L55.32 239.48L105.34 235.27L118.15 225.18C118.49 225.03 118.75 224.71 118.79 224.32L120.94 203.15L129.25 233.26L179.26 229.04L192.34 218.81V218.77C192.54 218.6 192.68 218.36 192.71 218.08L204.41 99.61C204.44 99.3 204.33 98.98 204.11 98.76V98.75ZM190.68 216.98L142.43 221.05L126.68 163.99C126.54 163.5 126.08 163.17 125.57 163.21L123.71 163.37C123.2 163.41 122.79 163.81 122.74 164.32L116.77 223.21L68.51 227.28L37.72 114.53L74.85 111.4L90.65 182.91C90.76 183.43 91.25 183.79 91.78 183.74L93.64 183.58C94.16 183.54 94.57 183.13 94.61 182.61L100.91 109.2L139.82 105.92L158.65 177.22C158.78 177.72 159.25 178.05 159.77 178.01L161.63 177.85C162.17 177.81 162.59 177.36 162.6 176.82L164.88 103.81L202.17 100.67L190.68 216.98Z" fill="#202124"/>
<path d="M295.2 206.72L285.37 90.0701L325.89 86.6501L352.41 129.84L353.59 129.74L349.79 84.6401L387.6 81.4501L397.43 198.1L360.98 201.17L329.44 149.02L328.42 149.11L333.01 203.54L295.2 206.73V206.72Z" fill="white"/>
<path d="M398.5 198.02L388.67 81.37C388.62 80.79 388.12 80.36 387.52 80.4L349.71 83.59C349.45 83.61 349.23 83.74 349.06 83.91H349.02L336.81 95.59L337.47 103.48L326.8 86.11C326.59 85.77 326.2 85.58 325.8 85.61L285.28 89.03C284.96 89.06 284.69 89.23 284.52 89.47L272.38 101.02L282.21 217.67L320.02 214.48L333.45 204.5C333.85 204.32 334.11 203.91 334.08 203.45L332.68 186.78L348.01 212.12L384.46 209.05L397.94 199.06C397.94 199.06 397.96 199.04 397.98 199.03L398.12 198.93C398.17 198.88 398.23 198.85 398.27 198.8C398.45 198.58 398.54 198.31 398.52 198.02H398.5ZM325.33 87.77L351.51 130.4C351.72 130.74 352.11 130.93 352.51 130.9L353.69 130.8C354.27 130.75 354.71 130.24 354.66 129.65L350.95 85.61L386.64 82.6L396.29 197.13L361.56 200.06L330.36 148.47C330.15 148.12 329.77 147.93 329.36 147.96L328.34 148.05C327.76 148.1 327.32 148.61 327.37 149.2L331.87 202.57L296.18 205.58L286.53 91.05L325.34 87.78L325.33 87.77Z" fill="#202124"/>
</g>
<defs>
<clipPath id="clip0_1428_527866">
<rect width="480.47" height="317.14" fill="white"/>
</clipPath>
</defs>
</svg>
