<svg width="26" height="26" viewBox="0 0 26 26" fill="none" xmlns="http://www.w3.org/2000/svg">
<path d="M17.2142 13L23.7071 6.50711L24.4142 5.8L23.7071 5.09289L20.9071 2.29289L20.2 1.58579L19.4929 2.29289L13 8.78579L6.50711 2.29289L5.8 1.58579L5.09289 2.29289L2.29289 5.09289L1.58579 5.8L2.29289 6.50711L8.78579 13L2.29289 19.4929L1.58579 20.2L2.29289 20.9071L5.09289 23.7071L5.8 24.4142L6.50711 23.7071L13 17.2142L19.4929 23.7071L20.2 24.4142L20.9071 23.7071L23.7071 20.9071L24.4142 20.2L23.7071 19.4929L17.2142 13Z" fill="white" stroke="#202124" stroke-width="2"/>
</svg>
